AtkinsonHyperlegibleMono-RegularItalic.sfdir
StartChar: exclam
Encoding: 33 33 254
Width: 632
GlyphClass: 1
Flags: W
LayerCount: 2
Fore
SplineSet
324 496 m 1,0,-1
 361 668 l 1,1,-1
 449 668 l 1,2,-1
 413 496 l 1,3,-1
 331 193 l 1,4,-1
 278 193 l 1,5,-1
 324 496 l 1,0,-1
229.5 6.5 m 128,-1,7
 211 25 211 25 211 51 c 256,8,9
 211 77 211 77 229.5 95.5 c 128,-1,10
 248 114 248 114 274 114 c 256,11,12
 300 114 300 114 318.5 95.5 c 128,-1,13
 337 77 337 77 337 51 c 256,14,15
 337 25 337 25 318.5 6.5 c 128,-1,16
 300 -12 300 -12 274 -12 c 256,17,6
 248 -12 248 -12 229.5 6.5 c 128,-1,7
EndSplineSet
EndChar
StartChar: numbersign
Encoding: 35 35 261
Width: 632
GlyphClass: 1
Flags: W
LayerCount: 2
Fore
SplineSet
128 183 m 1,0,-1
 19 183 l 1,1,-1
 44 253 l 1,2,-1
 150 253 l 1,3,-1
 205 415 l 1,4,-1
 98 415 l 1,5,-1
 122 485 l 1,6,-1
 229 485 l 1,7,-1
 292 668 l 1,8,-1
 370 668 l 1,9,-1
 307 485 l 1,10,-1
 463 485 l 1,11,-1
 526 668 l 1,12,-1
 604 668 l 1,13,-1
 541 485 l 1,14,-1
 649 485 l 1,15,-1
 624 415 l 1,16,-1
 519 415 l 1,17,-1
 463 253 l 1,18,-1
 570 253 l 1,19,-1
 546 183 l 1,20,-1
 440 183 l 1,21,-1
 377 0 l 1,22,-1
 299 0 l 1,23,-1
 362 183 l 1,24,-1
 206 183 l 1,25,-1
 143 0 l 1,26,-1
 65 0 l 1,27,-1
 128 183 l 1,0,-1
385 253 m 1,28,-1
 441 415 l 1,29,-1
 283 415 l 1,30,-1
 228 253 l 1,31,-1
 385 253 l 1,28,-1
EndSplineSet
EndChar
StartChar: dollar
Encoding: 36 36 304
Width: 632
GlyphClass: 1
Flags: W
LayerCount: 2
Fore
SplineSet
115 45.5 m 128,-1,1
 65 85 65 85 50 149 c 1,2,-1
 132 177 l 1,3,4
 140 132 140 132 171 103.5 c 128,-1,5
 202 75 202 75 247 65 c 1,6,-1
 301 319 l 1,7,-1
 270 330 l 2,8,9
 131 382 131 382 131 486 c 0,10,11
 131 538 131 538 161 582 c 128,-1,12
 191 626 191 626 247 653 c 128,-1,13
 303 680 303 680 377 680 c 1,14,-1
 394 758 l 1,15,-1
 442 758 l 1,16,-1
 425 676 l 1,17,18
 486 667 486 667 532.5 635.5 c 128,-1,19
 579 604 579 604 599 552 c 1,20,-1
 519 524 l 1,21,22
 507 556 507 556 477.5 577 c 128,-1,23
 448 598 448 598 410 605 c 1,24,-1
 362 379 l 1,25,-1
 391 369 l 2,26,27
 475 338 475 338 516 300 c 128,-1,28
 557 262 557 262 557 201 c 0,29,30
 557 143 557 143 524 94 c 128,-1,31
 491 45 491 45 428 16.5 c 128,-1,32
 365 -12 365 -12 279 -11 c 1,33,-1
 262 -90 l 1,34,-1
 214 -90 l 1,35,-1
 232 -7 l 1,36,0
 165 6 165 6 115 45.5 c 128,-1,1
388 75 m 128,-1,38
 428 93 428 93 449 124 c 128,-1,39
 470 155 470 155 470 191 c 0,40,41
 470 228 470 228 442.5 251.5 c 128,-1,42
 415 275 415 275 363 296 c 2,43,-1
 346 303 l 1,44,-1
 294 58 l 1,45,37
 348 57 348 57 388 75 c 128,-1,38
258 576 m 128,-1,47
 217 545 217 545 217 494 c 0,48,49
 217 462 217 462 239 440 c 128,-1,50
 261 418 261 418 301 402 c 2,51,-1
 318 395 l 1,52,-1
 363 609 l 1,53,46
 299 607 299 607 258 576 c 128,-1,47
EndSplineSet
EndChar
StartChar: percent
Encoding: 37 37 332
Width: 632
GlyphClass: 1
Flags: W
LayerCount: 2
Fore
SplineSet
140 407.5 m 128,-1,1
 107 427 107 427 87.5 461 c 128,-1,2
 68 495 68 495 68 535 c 256,3,4
 68 575 68 575 87.5 608.5 c 128,-1,5
 107 642 107 642 140 661.5 c 128,-1,6
 173 681 173 681 213 681 c 256,7,8
 253 681 253 681 286.5 661.5 c 128,-1,9
 320 642 320 642 339.5 608.5 c 128,-1,10
 359 575 359 575 359 535 c 256,11,12
 359 495 359 495 339.5 461 c 128,-1,13
 320 427 320 427 286.5 407.5 c 128,-1,14
 253 388 253 388 213 388 c 256,15,0
 173 388 173 388 140 407.5 c 128,-1,1
274 472.5 m 128,-1,17
 299 498 299 498 299 535 c 0,18,19
 299 571 299 571 274 596.5 c 128,-1,20
 249 622 249 622 213 622 c 0,21,22
 178 622 178 622 153 596.5 c 128,-1,23
 128 571 128 571 128 535 c 0,24,25
 128 498 128 498 153 472.5 c 128,-1,26
 178 447 178 447 213 447 c 0,27,16
 249 447 249 447 274 472.5 c 128,-1,17
545 668 m 1,28,-1
 623 668 l 1,29,-1
 123 0 l 1,30,-1
 45 0 l 1,31,-1
 545 668 l 1,28,-1
382 5.5 m 128,-1,33
 349 25 349 25 329.5 59 c 128,-1,34
 310 93 310 93 310 133 c 256,35,36
 310 173 310 173 329.5 206.5 c 128,-1,37
 349 240 349 240 382 259.5 c 128,-1,38
 415 279 415 279 455 279 c 256,39,40
 495 279 495 279 528.5 259.5 c 128,-1,41
 562 240 562 240 581.5 206.5 c 128,-1,42
 601 173 601 173 601 133 c 256,43,44
 601 93 601 93 581.5 59 c 128,-1,45
 562 25 562 25 528.5 5.5 c 128,-1,46
 495 -14 495 -14 455 -14 c 256,47,32
 415 -14 415 -14 382 5.5 c 128,-1,33
516 70.5 m 128,-1,49
 541 96 541 96 541 133 c 0,50,51
 541 169 541 169 516 194.5 c 128,-1,52
 491 220 491 220 455 220 c 0,53,54
 420 220 420 220 395 194.5 c 128,-1,55
 370 169 370 169 370 133 c 0,56,57
 370 96 370 96 395 70.5 c 128,-1,58
 420 45 420 45 455 45 c 0,59,48
 491 45 491 45 516 70.5 c 128,-1,49
EndSplineSet
EndChar
StartChar: ampersand
Encoding: 38 38 289
Width: 632
GlyphClass: 1
Flags: W
LayerCount: 2
Fore
SplineSet
110.5 8.5 m 128,-1,1
 64 29 64 29 37 67.5 c 128,-1,2
 10 106 10 106 10 157 c 0,3,4
 10 243 10 243 69.5 303 c 128,-1,5
 129 363 129 363 226 394 c 1,6,7
 182 462 182 462 182 521 c 0,8,9
 182 564 182 564 204 602.5 c 128,-1,10
 226 641 226 641 265.5 665.5 c 128,-1,11
 305 690 305 690 356 690 c 0,12,13
 400 690 400 690 434 672 c 128,-1,14
 468 654 468 654 486.5 623.5 c 128,-1,15
 505 593 505 593 505 556 c 0,16,17
 505 489 505 489 456.5 439 c 128,-1,18
 408 389 408 389 333 364 c 1,19,-1
 442 199 l 1,20,21
 461 228 461 228 473.5 262.5 c 128,-1,22
 486 297 486 297 496 347 c 1,23,-1
 573 347 l 1,24,25
 558 279 558 279 535 228.5 c 128,-1,26
 512 178 512 178 479 137 c 1,27,-1
 568 0 l 1,28,-1
 478 0 l 1,29,-1
 428 78 l 1,30,31
 378 30 378 30 325.5 9 c 128,-1,32
 273 -12 273 -12 215 -12 c 256,33,0
 157 -12 157 -12 110.5 8.5 c 128,-1,1
314 79 m 128,-1,35
 354 97 354 97 391 138 c 1,36,-1
 261 339 l 1,37,38
 186 316 186 316 139.5 274 c 128,-1,39
 93 232 93 232 93 169 c 0,40,41
 93 120 93 120 130.5 90.5 c 128,-1,42
 168 61 168 61 228 61 c 0,43,34
 274 61 274 61 314 79 c 128,-1,35
395.5 467 m 128,-1,45
 433 501 433 501 433 548 c 0,46,47
 433 580 433 580 410.5 601 c 128,-1,48
 388 622 388 622 353 622 c 0,49,50
 310 622 310 622 283 593 c 128,-1,51
 256 564 256 564 256 527 c 0,52,53
 256 501 256 501 268.5 473.5 c 128,-1,54
 281 446 281 446 302 415 c 1,55,44
 358 433 358 433 395.5 467 c 128,-1,45
EndSplineSet
EndChar
StartChar: period
Encoding: 46 46 249
Width: 632
GlyphClass: 1
Flags: W
LayerCount: 2
Fore
SplineSet
226.5 8.5 m 128,-1,1
 206 29 206 29 206 58 c 256,2,3
 206 87 206 87 226.5 107.5 c 128,-1,4
 247 128 247 128 276 128 c 0,5,6
 304 128 304 128 324.5 107.5 c 128,-1,7
 345 87 345 87 345 58 c 256,8,9
 345 29 345 29 325 8.5 c 128,-1,10
 305 -12 305 -12 276 -12 c 256,11,0
 247 -12 247 -12 226.5 8.5 c 128,-1,1
EndSplineSet
EndChar
StartChar: slash
Encoding: 47 47 262
Width: 632
GlyphClass: 5
Flags: W
LayerCount: 2
Fore
SplineSet
586 708 m 1,0,-1
 676 708 l 1,1,-1
 72 -90 l 1,2,-1
 -18 -90 l 1,3,-1
 586 708 l 1,0,-1
EndSplineSet
EndChar
StartChar: zero
Encoding: 48 48 229
Width: 632
GlyphClass: 1
Flags: W
LayerCount: 2
Fore
SplineSet
120 56 m 128,-1,1
 63 125 63 125 63 241 c 0,2,3
 63 338 63 338 97 440 c 128,-1,4
 131 542 131 542 202.5 612 c 128,-1,5
 274 682 274 682 380 682 c 0,6,7
 493 682 493 682 550 613.5 c 128,-1,8
 607 545 607 545 607 429 c 0,9,10
 607 332 607 332 573 229.5 c 128,-1,11
 539 127 539 127 467.5 57 c 128,-1,12
 396 -13 396 -13 290 -13 c 0,13,0
 177 -13 177 -13 120 56 c 128,-1,1
411 106 m 1,15,-1
 222 514 l 1,16,17
 185 457 185 457 166 380 c 128,-1,18
 147 303 147 303 147 237 c 0,19,20
 147 154 147 154 181.5 105 c 128,-1,21
 216 56 216 56 292 56 c 0,22,14
 359 56 359 56 411 106 c 1,15,-1
504.5 290 m 128,-1,24
 523 366 523 366 523 431 c 0,25,26
 523 514 523 514 488 564 c 128,-1,27
 453 614 453 614 378 614 c 0,28,29
 312 614 312 614 260 565 c 1,30,-1
 450 158 l 1,31,23
 486 214 486 214 504.5 290 c 128,-1,24
EndSplineSet
Substitution2: "'zero' Slashed Zero in Latin lookup 10 subtable" zero.zero
AlternateSubs2: "'aalt' Access All Alternates in Latin lookup 0 subtable" zero.zero
EndChar
StartChar: five
Encoding: 53 53 234
Width: 632
GlyphClass: 1
Flags: W
LayerCount: 2
Fore
SplineSet
138.5 34 m 128,-1,1
 85 80 85 80 74 153 c 1,2,-1
 153 176 l 1,3,4
 156 120 156 120 190.5 88.5 c 128,-1,5
 225 57 225 57 289 57 c 0,6,7
 345 57 345 57 384.5 86 c 128,-1,8
 424 115 424 115 443.5 160 c 128,-1,9
 463 205 463 205 463 251 c 0,10,11
 463 314 463 314 428 347.5 c 128,-1,12
 393 381 393 381 339 381 c 0,13,14
 294 381 294 381 255.5 357.5 c 128,-1,15
 217 334 217 334 195 305 c 1,16,-1
 123 330 l 1,17,-1
 236 668 l 1,18,-1
 614 668 l 1,19,-1
 598 593 l 1,20,-1
 290 593 l 1,21,-1
 223 393 l 1,22,23
 282 450 282 450 364 450 c 0,24,25
 418 450 418 450 460 426.5 c 128,-1,26
 502 403 502 403 526 360 c 128,-1,27
 550 317 550 317 550 259 c 0,28,29
 550 184 550 184 517 122 c 128,-1,30
 484 60 484 60 424.5 24 c 128,-1,31
 365 -12 365 -12 287 -12 c 0,32,0
 192 -12 192 -12 138.5 34 c 128,-1,1
EndSplineSet
EndChar
StartChar: six
Encoding: 54 54 235
Width: 632
GlyphClass: 1
Flags: W
LayerCount: 2
Fore
SplineSet
145 49 m 128,-1,1
 92 110 92 110 92 214 c 0,2,3
 92 306 92 306 127 415.5 c 128,-1,4
 162 525 162 525 234.5 602.5 c 128,-1,5
 307 680 307 680 413 680 c 0,6,7
 478 680 478 680 526 652 c 128,-1,8
 574 624 574 624 593 570 c 1,9,-1
 515 542 l 1,10,11
 505 575 505 575 475.5 593.5 c 128,-1,12
 446 612 446 612 407 612 c 0,13,14
 329 612 329 612 274.5 537 c 128,-1,15
 220 462 220 462 196 360 c 1,16,17
 226 401 226 401 272.5 421.5 c 128,-1,18
 319 442 319 442 366 442 c 0,19,20
 424 442 424 442 468 417 c 128,-1,21
 512 392 512 392 536 348 c 128,-1,22
 560 304 560 304 560 249 c 0,23,24
 560 180 560 180 527 120 c 128,-1,25
 494 60 494 60 434.5 24 c 128,-1,26
 375 -12 375 -12 300 -12 c 0,27,0
 198 -12 198 -12 145 49 c 128,-1,1
395.5 83 m 128,-1,29
 433 110 433 110 453 152.5 c 128,-1,30
 473 195 473 195 473 242 c 0,31,32
 473 300 473 300 438 336.5 c 128,-1,33
 403 373 403 373 343 373 c 0,34,35
 292 373 292 373 253.5 346.5 c 128,-1,36
 215 320 215 320 194.5 277.5 c 128,-1,37
 174 235 174 235 174 188 c 0,38,39
 174 128 174 128 210 92 c 128,-1,40
 246 56 246 56 308 56 c 0,41,28
 358 56 358 56 395.5 83 c 128,-1,29
EndSplineSet
EndChar
StartChar: equal
Encoding: 61 61 315
Width: 632
GlyphClass: 1
Flags: W
LayerCount: 2
Fore
SplineSet
93 379 m 1,0,-1
 594 379 l 1,1,-1
 578 305 l 1,2,-1
 77 305 l 1,3,-1
 93 379 l 1,0,-1
54 198 m 1,4,-1
 555 198 l 1,5,-1
 540 123 l 1,6,-1
 39 123 l 1,7,-1
 54 198 l 1,4,-1
EndSplineSet
EndChar
StartChar: A
Encoding: 65 65 2
Width: 632
GlyphClass: 2
Flags: W
AnchorPoint: "Anchor-2" 547 10 basechar 0
AnchorPoint: "Anchor-1" 405 668 basechar 0
AnchorPoint: "Anchor-0" 263 0 basechar 0
LayerCount: 2
Fore
SplineSet
359 668 m 1,0,-1
 452 668 l 1,1,-1
 545 0 l 1,2,-1
 464 0 l 1,3,-1
 443 153 l 1,4,-1
 152 153 l 1,5,-1
 67 0 l 1,6,-1
 -19 0 l 1,7,-1
 359 668 l 1,0,-1
436 226 m 1,8,-1
 390 577 l 1,9,-1
 386 577 l 1,10,-1
 190 226 l 1,11,-1
 436 226 l 1,8,-1
EndSplineSet
Substitution2: "Single Substitution lookup 14 subtable" ordfeminine
AlternateSubs2: "'aalt' Access All Alternates in Latin lookup 0 subtable" ordfeminine
EndChar
StartChar: B
Encoding: 66 66 13
Width: 632
GlyphClass: 2
Flags: W
AnchorPoint: "Anchor-1" 408 668 basechar 0
AnchorPoint: "Anchor-0" 266 0 basechar 0
LayerCount: 2
Fore
SplineSet
191 668 m 1,0,-1
 403 668 l 2,1,2
 497 668 497 668 546.5 626 c 128,-1,3
 596 584 596 584 596 517 c 0,4,5
 596 461 596 461 565 412 c 128,-1,6
 534 363 534 363 474 344 c 1,7,8
 513 326 513 326 535.5 290.5 c 128,-1,9
 558 255 558 255 558 210 c 0,10,11
 558 157 558 157 534.5 109 c 128,-1,12
 511 61 511 61 460.5 30.5 c 128,-1,13
 410 0 410 0 335 0 c 2,14,-1
 49 0 l 1,15,-1
 191 668 l 1,0,-1
435 112 m 128,-1,17
 473 152 473 152 473 207 c 0,18,19
 473 252 473 252 443 280.5 c 128,-1,20
 413 309 413 309 354 309 c 2,21,-1
 198 309 l 1,22,-1
 148 72 l 1,23,-1
 327 72 l 2,24,16
 397 72 397 72 435 112 c 128,-1,17
478 415.5 m 128,-1,26
 509 450 509 450 509 502 c 0,27,28
 509 543 509 543 481 569.5 c 128,-1,29
 453 596 453 596 396 596 c 2,30,-1
 260 596 l 1,31,-1
 214 381 l 1,32,-1
 387 381 l 2,33,25
 447 381 447 381 478 415.5 c 128,-1,26
EndSplineSet
EndChar
StartChar: C
Encoding: 67 67 14
Width: 632
GlyphClass: 2
Flags: W
AnchorPoint: "Anchor-1" 427 668 basechar 0
AnchorPoint: "Anchor-0" 314 0 basechar 0
LayerCount: 2
Fore
SplineSet
128.5 63.5 m 128,-1,1
 66 139 66 139 66 261 c 0,2,3
 66 357 66 357 105 454 c 128,-1,4
 144 551 144 551 220.5 615.5 c 128,-1,5
 297 680 297 680 403 680 c 0,6,7
 483 680 483 680 542 639.5 c 128,-1,8
 601 599 601 599 623 524 c 1,9,-1
 550 499 l 1,10,11
 534 550 534 550 494.5 578.5 c 128,-1,12
 455 607 455 607 401 607 c 0,13,14
 322 607 322 607 266 552 c 128,-1,15
 210 497 210 497 182 417.5 c 128,-1,16
 154 338 154 338 154 266 c 0,17,18
 154 176 154 176 196 118.5 c 128,-1,19
 238 61 238 61 323 61 c 0,20,21
 426 61 426 61 494 165 c 1,22,-1
 566 135 l 1,23,24
 519 61 519 61 454.5 24.5 c 128,-1,25
 390 -12 390 -12 313 -12 c 0,26,0
 191 -12 191 -12 128.5 63.5 c 128,-1,1
EndSplineSet
EndChar
StartChar: D
Encoding: 68 68 19
Width: 632
GlyphClass: 2
Flags: W
AnchorPoint: "Anchor-1" 411 668 basechar 0
AnchorPoint: "Anchor-0" 267 0 basechar 0
LayerCount: 2
Fore
SplineSet
162 668 m 1,0,-1
 282 668 l 2,1,2
 444 668 444 668 529.5 601 c 128,-1,3
 615 534 615 534 615 399 c 0,4,5
 615 307 615 307 580.5 216 c 128,-1,6
 546 125 546 125 465.5 62.5 c 128,-1,7
 385 0 385 0 256 0 c 2,8,-1
 20 0 l 1,9,-1
 162 668 l 1,0,-1
414 121.5 m 128,-1,11
 475 170 475 170 502 244.5 c 128,-1,12
 529 319 529 319 529 399 c 0,13,14
 529 595 529 595 282 595 c 2,15,-1
 230 595 l 1,16,-1
 119 73 l 1,17,-1
 257 73 l 2,18,10
 353 73 353 73 414 121.5 c 128,-1,11
EndSplineSet
EndChar
StartChar: G
Encoding: 71 71 33
Width: 632
GlyphClass: 2
Flags: W
AnchorPoint: "Anchor-1" 405 668 basechar 0
AnchorPoint: "Anchor-0" 282 0 basechar 0
LayerCount: 2
Fore
SplineSet
154.5 24 m 128,-1,1
 103 60 103 60 77.5 121 c 128,-1,2
 52 182 52 182 52 258 c 0,3,4
 52 351 52 351 89 449 c 128,-1,5
 126 547 126 547 201.5 613.5 c 128,-1,6
 277 680 277 680 386 680 c 0,7,8
 466 680 466 680 526 640 c 128,-1,9
 586 600 586 600 607 523 c 1,10,-1
 534 498 l 1,11,12
 520 552 520 552 479 579.5 c 128,-1,13
 438 607 438 607 383 607 c 0,14,15
 304 607 304 607 248.5 552 c 128,-1,16
 193 497 193 497 165.5 417.5 c 128,-1,17
 138 338 138 338 138 266 c 0,18,19
 138 177 138 177 179 119 c 128,-1,20
 220 61 220 61 299 61 c 0,21,22
 337 61 337 61 377.5 78.5 c 128,-1,23
 418 96 418 96 452.5 138 c 128,-1,24
 487 180 487 180 501 249 c 2,25,-1
 506 273 l 1,26,-1
 330 273 l 1,27,-1
 345 343 l 1,28,-1
 600 343 l 1,29,-1
 526 0 l 1,30,-1
 471 0 l 1,31,-1
 475 85 l 1,32,33
 435 34 435 34 382 11 c 128,-1,34
 329 -12 329 -12 279 -12 c 0,35,0
 206 -12 206 -12 154.5 24 c 128,-1,1
EndSplineSet
EndChar
StartChar: L
Encoding: 76 76 52
Width: 632
GlyphClass: 2
Flags: W
AnchorPoint: "Anchor-3" 335 459 basechar 0
AnchorPoint: "Anchor-1" 412 668 basechar 0
AnchorPoint: "Anchor-0" 290 0 basechar 0
LayerCount: 2
Fore
SplineSet
223 668 m 1,0,-1
 311 668 l 1,1,-1
 185 77 l 1,2,-1
 546 77 l 1,3,-1
 530 0 l 1,4,-1
 81 0 l 1,5,-1
 223 668 l 1,0,-1
EndSplineSet
EndChar
StartChar: N
Encoding: 78 78 57
Width: 632
GlyphClass: 2
Flags: W
AnchorPoint: "Anchor-1" 405 668 basechar 0
AnchorPoint: "Anchor-0" 251 0 basechar 0
LayerCount: 2
Fore
SplineSet
164 668 m 1,0,-1
 275 668 l 1,1,-1
 441 104 l 1,2,-1
 445 104 l 1,3,-1
 565 668 l 1,4,-1
 646 668 l 1,5,-1
 504 0 l 1,6,-1
 393 0 l 1,7,-1
 227 564 l 1,8,-1
 223 564 l 1,9,-1
 103 0 l 1,10,-1
 22 0 l 1,11,-1
 164 668 l 1,0,-1
EndSplineSet
EndChar
StartChar: O
Encoding: 79 79 62
Width: 632
GlyphClass: 2
Flags: W
AnchorPoint: "Anchor-3" 715 668 basechar 0
AnchorPoint: "Anchor-2" 527 10 basechar 0
AnchorPoint: "Anchor-1" 406 668 basechar 0
AnchorPoint: "Anchor-0" 264 0 basechar 0
LayerCount: 2
Fore
SplineSet
111.5 61.5 m 128,-1,1
 52 135 52 135 52 255 c 0,2,3
 52 354 52 354 89 452 c 128,-1,4
 126 550 126 550 200 615 c 128,-1,5
 274 680 274 680 379 680 c 0,6,7
 497 680 497 680 556.5 606.5 c 128,-1,8
 616 533 616 533 616 413 c 0,9,10
 616 314 616 314 579 216 c 128,-1,11
 542 118 542 118 468 53 c 128,-1,12
 394 -12 394 -12 289 -12 c 0,13,0
 171 -12 171 -12 111.5 61.5 c 128,-1,1
424.5 118.5 m 128,-1,15
 478 176 478 176 504 258.5 c 128,-1,16
 530 341 530 341 530 413 c 0,17,18
 530 499 530 499 492 553 c 128,-1,19
 454 607 454 607 375 607 c 0,20,21
 297 607 297 607 243.5 549.5 c 128,-1,22
 190 492 190 492 164 410 c 128,-1,23
 138 328 138 328 138 255 c 0,24,25
 138 169 138 169 176 115 c 128,-1,26
 214 61 214 61 293 61 c 0,27,14
 371 61 371 61 424.5 118.5 c 128,-1,15
EndSplineSet
Substitution2: "Single Substitution lookup 14 subtable" ordmasculine
AlternateSubs2: "'aalt' Access All Alternates in Latin lookup 0 subtable" ordmasculine
EndChar
StartChar: P
Encoding: 80 80 71
Width: 632
GlyphClass: 2
Flags: W
AnchorPoint: "Anchor-1" 409 668 basechar 0
AnchorPoint: "Anchor-0" 267 0 basechar 0
LayerCount: 2
Fore
SplineSet
193 668 m 1,0,-1
 394 668 l 2,1,2
 501 668 501 668 562.5 621 c 128,-1,3
 624 574 624 574 624 492 c 0,4,5
 624 425 624 425 594 374.5 c 128,-1,6
 564 324 564 324 509 296 c 128,-1,7
 454 268 454 268 380 268 c 2,8,-1
 192 268 l 1,9,-1
 135 0 l 1,10,-1
 51 0 l 1,11,-1
 193 668 l 1,0,-1
497 378 m 128,-1,13
 537 416 537 416 537 485 c 0,14,15
 537 539 537 539 498 567.5 c 128,-1,16
 459 596 459 596 388 596 c 2,17,-1
 262 596 l 1,18,-1
 207 340 l 1,19,-1
 382 340 l 2,20,12
 457 340 457 340 497 378 c 128,-1,13
EndSplineSet
EndChar
StartChar: Q
Encoding: 81 81 73
Width: 632
GlyphClass: 1
Flags: W
LayerCount: 2
Fore
SplineSet
111.5 61.5 m 128,-1,1
 52 135 52 135 52 255 c 0,2,3
 52 354 52 354 89 452 c 128,-1,4
 126 550 126 550 200 615 c 128,-1,5
 274 680 274 680 379 680 c 0,6,7
 497 680 497 680 556.5 606.5 c 128,-1,8
 616 533 616 533 616 413 c 0,9,10
 616 334 616 334 592 253 c 128,-1,11
 568 172 568 172 522 111 c 1,12,-1
 584 37 l 1,13,-1
 529 -9 l 1,14,-1
 472 57 l 1,15,16
 393 -12 393 -12 289 -12 c 0,17,0
 171 -12 171 -12 111.5 61.5 c 128,-1,1
423 116 m 1,19,-1
 295 267 l 1,20,-1
 350 313 l 1,21,-1
 465 177 l 1,22,23
 497 229 497 229 513.5 293 c 128,-1,24
 530 357 530 357 530 413 c 0,25,26
 530 499 530 499 492 553 c 128,-1,27
 454 607 454 607 375 607 c 0,28,29
 297 607 297 607 243.5 549.5 c 128,-1,30
 190 492 190 492 164 410 c 128,-1,31
 138 328 138 328 138 255 c 0,32,33
 138 169 138 169 176 115 c 128,-1,34
 214 61 214 61 293 61 c 0,35,18
 368 61 368 61 423 116 c 1,19,-1
EndSplineSet
EndChar
StartChar: W
Encoding: 87 87 97
Width: 632
GlyphClass: 2
Flags: W
AnchorPoint: "Anchor-1" 404 668 basechar 0
AnchorPoint: "Anchor-0" 265 0 basechar 0
LayerCount: 2
Fore
SplineSet
100 668 m 1,0,-1
 175 668 l 1,1,-1
 144 113 l 1,2,-1
 148 113 l 1,3,-1
 362 668 l 1,4,-1
 447 668 l 1,5,-1
 424 113 l 1,6,-1
 428 113 l 1,7,-1
 632 668 l 1,8,-1
 710 668 l 1,9,-1
 450 0 l 1,10,-1
 357 0 l 1,11,-1
 380 538 l 1,12,-1
 376 538 l 1,13,-1
 170 0 l 1,14,-1
 77 0 l 1,15,-1
 100 668 l 1,0,-1
EndSplineSet
EndChar
StartChar: a
Encoding: 97 97 112
Width: 632
GlyphClass: 2
Flags: W
AnchorPoint: "Anchor-2" 478 10 basechar 0
AnchorPoint: "Anchor-1" 365 496 basechar 0
AnchorPoint: "Anchor-0" 259 0 basechar 0
LayerCount: 2
Fore
SplineSet
103 21.5 m 128,-1,1
 55 55 55 55 55 115 c 0,2,3
 55 208 55 208 147.5 255 c 128,-1,4
 240 302 240 302 443 311 c 1,5,-1
 444 315 l 2,6,7
 447 332 447 332 447 347 c 0,8,9
 447 390 447 390 419 417 c 128,-1,10
 391 444 391 444 333 444 c 0,11,12
 286 444 286 444 253 422.5 c 128,-1,13
 220 401 220 401 209 366 c 1,14,-1
 130 390 l 1,15,16
 157 447 157 447 211 477 c 128,-1,17
 265 507 265 507 335 507 c 0,18,19
 427 507 427 507 477.5 469 c 128,-1,20
 528 431 528 431 528 354 c 0,21,22
 528 324 528 324 521 292 c 2,23,-1
 500 191 l 2,24,25
 476 81 476 81 476 0 c 1,26,-1
 402 0 l 1,27,-1
 399 71 l 1,28,29
 370 34 370 34 323.5 11 c 128,-1,30
 277 -12 277 -12 220 -12 c 0,31,0
 151 -12 151 -12 103 21.5 c 128,-1,1
353.5 89 m 128,-1,33
 403 126 403 126 418 193 c 2,34,-1
 430 251 l 1,35,36
 274 245 274 245 208 211.5 c 128,-1,37
 142 178 142 178 142 125 c 0,38,39
 142 92 142 92 170 72 c 128,-1,40
 198 52 198 52 244 52 c 0,41,32
 304 52 304 52 353.5 89 c 128,-1,33
EndSplineSet
Substitution2: "Single Substitution lookup 14 subtable" ordfeminine
AlternateSubs2: "'aalt' Access All Alternates in Latin lookup 0 subtable" ordfeminine
EndChar
StartChar: b
Encoding: 98 98 123
Width: 632
GlyphClass: 2
Flags: W
AnchorPoint: "Anchor-1" 359 496 basechar 0
AnchorPoint: "Anchor-0" 254 0 basechar 0
LayerCount: 2
Fore
SplineSet
206 13.5 m 128,-1,1
 161 39 161 39 139 88 c 1,2,-1
 106 0 l 1,3,-1
 36 0 l 1,4,-1
 187 708 l 1,5,-1
 272 708 l 1,6,-1
 210 422 l 1,7,8
 242 461 242 461 289.5 484 c 128,-1,9
 337 507 337 507 391 507 c 0,10,11
 479 507 479 507 530.5 449.5 c 128,-1,12
 582 392 582 392 582 299 c 0,13,14
 582 218 582 218 550 146.5 c 128,-1,15
 518 75 518 75 457 31.5 c 128,-1,16
 396 -12 396 -12 312 -12 c 0,17,0
 251 -12 251 -12 206 13.5 c 128,-1,1
410.5 95 m 128,-1,19
 455 132 455 132 475 186 c 128,-1,20
 495 240 495 240 495 290 c 0,21,22
 495 355 495 355 459.5 396 c 128,-1,23
 424 437 424 437 362 437 c 0,24,25
 298 437 298 437 254 399.5 c 128,-1,26
 210 362 210 362 188 306.5 c 128,-1,27
 166 251 166 251 166 198 c 0,28,29
 166 133 166 133 200 95.5 c 128,-1,30
 234 58 234 58 299 58 c 0,31,18
 366 58 366 58 410.5 95 c 128,-1,19
EndSplineSet
EndChar
StartChar: c
Encoding: 99 99 124
Width: 632
GlyphClass: 2
Flags: W
AnchorPoint: "Anchor-1" 399 496 basechar 0
AnchorPoint: "Anchor-0" 291 0 basechar 0
LayerCount: 2
Fore
SplineSet
197.5 16.5 m 128,-1,1
 146 45 146 45 119 95 c 128,-1,2
 92 145 92 145 92 208 c 0,3,4
 92 287 92 287 127.5 355.5 c 128,-1,5
 163 424 163 424 227.5 465.5 c 128,-1,6
 292 507 292 507 375 507 c 0,7,8
 444 507 444 507 497.5 477 c 128,-1,9
 551 447 551 447 575 389 c 1,10,-1
 502 364 l 1,11,12
 487 399 487 399 452 418 c 128,-1,13
 417 437 417 437 374 437 c 0,14,15
 313 437 313 437 268.5 405 c 128,-1,16
 224 373 224 373 201 321 c 128,-1,17
 178 269 178 269 178 211 c 0,18,19
 178 143 178 143 216 100.5 c 128,-1,20
 254 58 254 58 328 58 c 0,21,22
 372 58 372 58 407.5 74.5 c 128,-1,23
 443 91 443 91 463 124 c 1,24,-1
 536 94 l 1,25,26
 503 45 503 45 446.5 16.5 c 128,-1,27
 390 -12 390 -12 321 -12 c 0,28,0
 249 -12 249 -12 197.5 16.5 c 128,-1,1
EndSplineSet
EndChar
StartChar: d
Encoding: 100 100 129
Width: 632
GlyphClass: 2
Flags: W
AnchorPoint: "Anchor-3" 624 497 basechar 0
AnchorPoint: "Anchor-1" 443 796 basechar 0
AnchorPoint: "Anchor-0" 274 0 basechar 0
LayerCount: 2
Fore
SplineSet
102.5 45.5 m 128,-1,1
 51 103 51 103 51 196 c 0,2,3
 51 277 51 277 83 348.5 c 128,-1,4
 115 420 115 420 176 463.5 c 128,-1,5
 237 507 237 507 321 507 c 0,6,7
 383 507 383 507 427.5 480.5 c 128,-1,8
 472 454 472 454 492 404 c 1,9,-1
 557 708 l 1,10,-1
 642 708 l 1,11,-1
 531 186 l 2,12,13
 510 90 510 90 508 0 c 1,14,-1
 428 0 l 1,15,-1
 423 75 l 1,16,17
 387 32 387 32 340.5 10 c 128,-1,18
 294 -12 294 -12 241 -12 c 0,19,0
 154 -12 154 -12 102.5 45.5 c 128,-1,1
377.5 95.5 m 128,-1,21
 422 133 422 133 444 188.5 c 128,-1,22
 466 244 466 244 466 298 c 0,23,24
 466 362 466 362 432 399.5 c 128,-1,25
 398 437 398 437 334 437 c 0,26,27
 267 437 267 437 222.5 400 c 128,-1,28
 178 363 178 363 158 309 c 128,-1,29
 138 255 138 255 138 205 c 0,30,31
 138 139 138 139 173 98.5 c 128,-1,32
 208 58 208 58 270 58 c 0,33,20
 333 58 333 58 377.5 95.5 c 128,-1,21
EndSplineSet
EndChar
StartChar: g
Encoding: 103 103 143
Width: 632
GlyphClass: 2
Flags: W
AnchorPoint: "Anchor-1" 367 496 basechar 0
AnchorPoint: "Anchor-0" 214 -251 basechar 0
LayerCount: 2
Fore
SplineSet
122 -162 m 128,-1,1
 60 -133 60 -133 43 -75 c 1,2,-1
 120 -50 l 1,3,4
 131 -86 131 -86 172.5 -103.5 c 128,-1,5
 214 -121 214 -121 264 -121 c 0,6,7
 318 -121 318 -121 356.5 -94.5 c 128,-1,8
 395 -68 395 -68 406 -12 c 2,9,-1
 427 86 l 1,10,11
 391 50 391 50 345.5 29.5 c 128,-1,12
 300 9 300 9 249 9 c 0,13,14
 189 9 189 9 146 36.5 c 128,-1,15
 103 64 103 64 81 110 c 128,-1,16
 59 156 59 156 59 213 c 0,17,18
 59 292 59 292 92 359 c 128,-1,19
 125 426 125 426 185.5 466.5 c 128,-1,20
 246 507 246 507 325 507 c 0,21,22
 380 507 380 507 426.5 480.5 c 128,-1,23
 473 454 473 454 494 408 c 1,24,-1
 529 496 l 1,25,-1
 598 496 l 1,26,-1
 491 -14 l 2,27,28
 472 -102 472 -102 411.5 -146.5 c 128,-1,29
 351 -191 351 -191 257 -191 c 0,30,0
 184 -191 184 -191 122 -162 c 128,-1,1
396.5 124 m 128,-1,32
 446 169 446 169 463 249 c 0,33,34
 469 276 469 276 469 302 c 0,35,36
 469 363 469 363 435 400 c 128,-1,37
 401 437 401 437 336 437 c 0,38,39
 275 437 275 437 232 406.5 c 128,-1,40
 189 376 189 376 167.5 326.5 c 128,-1,41
 146 277 146 277 146 221 c 0,42,43
 146 158 146 158 180.5 118.5 c 128,-1,44
 215 79 215 79 280 79 c 0,45,31
 347 79 347 79 396.5 124 c 128,-1,32
EndSplineSet
EndChar
StartChar: k
Encoding: 107 107 161
Width: 632
GlyphClass: 2
Flags: W
AnchorPoint: "Anchor-1" 442 796 basechar 0
AnchorPoint: "Anchor-0" 276 0 basechar 0
LayerCount: 2
Fore
SplineSet
227 708 m 1,0,-1
 312 708 l 1,1,-1
 218 262 l 1,2,-1
 500 496 l 1,3,-1
 611 496 l 1,4,-1
 357 289 l 1,5,-1
 532 0 l 1,6,-1
 436 0 l 1,7,-1
 295 238 l 1,8,-1
 195 157 l 1,9,-1
 162 0 l 1,10,-1
 77 0 l 1,11,-1
 227 708 l 1,0,-1
EndSplineSet
EndChar
StartChar: m
Encoding: 109 109 167
Width: 632
GlyphClass: 2
Flags: W
AnchorPoint: "Anchor-1" 367 496 basechar 0
AnchorPoint: "Anchor-0" 265 0 basechar 0
LayerCount: 2
Fore
SplineSet
116 496 m 1,0,-1
 177 496 l 1,1,-1
 176 444 l 1,2,3
 197 471 197 471 228 489 c 128,-1,4
 259 507 259 507 297 507 c 0,5,6
 374 507 374 507 385 443 c 1,7,8
 405 470 405 470 438.5 488.5 c 128,-1,9
 472 507 472 507 511 507 c 0,10,11
 558 507 558 507 580.5 483.5 c 128,-1,12
 603 460 603 460 603 418 c 0,13,14
 603 400 603 400 598 375 c 2,15,-1
 518 0 l 1,16,-1
 442 0 l 1,17,-1
 516 349 l 2,18,19
 521 372 521 372 521 386 c 0,20,21
 521 437 521 437 473 437 c 0,22,23
 438 437 438 437 411 409 c 128,-1,24
 384 381 384 381 373 329 c 2,25,-1
 302 0 l 1,26,-1
 226 0 l 1,27,-1
 301 350 l 2,28,29
 305 369 305 369 305 386 c 0,30,31
 305 437 305 437 258 437 c 0,32,33
 223 437 223 437 195.5 408.5 c 128,-1,34
 168 380 168 380 156 328 c 2,35,-1
 86 0 l 1,36,-1
 10 0 l 1,37,-1
 116 496 l 1,0,-1
EndSplineSet
EndChar
StartChar: n
Encoding: 110 110 168
Width: 632
GlyphClass: 2
Flags: W
AnchorPoint: "Anchor-1" 369 496 basechar 0
AnchorPoint: "Anchor-0" 259 0 basechar 0
LayerCount: 2
Fore
SplineSet
156 496 m 1,0,-1
 226 496 l 1,1,-1
 224 421 l 1,2,3
 251 455 251 455 297.5 481 c 128,-1,4
 344 507 344 507 399 507 c 0,5,6
 476 507 476 507 513.5 468.5 c 128,-1,7
 551 430 551 430 551 366 c 0,8,9
 551 335 551 335 544 306 c 2,10,-1
 479 0 l 1,11,-1
 394 0 l 1,12,-1
 455 292 l 2,13,14
 462 327 462 327 462 347 c 0,15,16
 462 391 462 391 438.5 414 c 128,-1,17
 415 437 415 437 364 437 c 0,18,19
 305 437 305 437 256.5 390.5 c 128,-1,20
 208 344 208 344 192 266 c 2,21,-1
 135 0 l 1,22,-1
 50 0 l 1,23,-1
 156 496 l 1,0,-1
EndSplineSet
EndChar
StartChar: q
Encoding: 113 113 184
Width: 632
GlyphClass: 2
Flags: W
AnchorPoint: "Anchor-1" 381 496 basechar 0
AnchorPoint: "Anchor-0" 276 0 basechar 0
LayerCount: 2
Fore
SplineSet
382 -86 m 0,1,2
 382 -64 382 -64 388 -37 c 2,3,-1
 412 73 l 1,4,5
 378 32 378 32 331.5 10 c 128,-1,6
 285 -12 285 -12 233 -12 c 0,7,8
 149 -12 149 -12 99 44 c 128,-1,9
 49 100 49 100 49 193 c 0,10,11
 49 272 49 272 80 344.5 c 128,-1,12
 111 417 111 417 171 462 c 128,-1,13
 231 507 231 507 315 507 c 0,14,15
 375 507 375 507 419 481 c 128,-1,16
 463 455 463 455 483 406 c 1,17,-1
 517 496 l 1,18,-1
 587 496 l 1,19,-1
 476 -29 l 2,20,21
 472 -53 472 -53 472 -61 c 0,22,23
 472 -81 472 -81 481.5 -90.5 c 128,-1,24
 491 -100 491 -100 512 -100 c 0,25,26
 538 -100 538 -100 560 -89 c 1,27,-1
 545 -161 l 1,28,29
 516 -174 516 -174 482 -174 c 0,30,0
 382 -174 382 -174 382 -86 c 0,1,2
369 95.5 m 128,-1,32
 412 133 412 133 434 189 c 128,-1,33
 456 245 456 245 456 299 c 0,34,35
 456 363 456 363 423 400 c 128,-1,36
 390 437 390 437 329 437 c 0,37,38
 263 437 263 437 219.5 399.5 c 128,-1,39
 176 362 176 362 156 308.5 c 128,-1,40
 136 255 136 255 136 204 c 0,41,42
 136 140 136 140 170.5 99 c 128,-1,43
 205 58 205 58 265 58 c 0,44,31
 326 58 326 58 369 95.5 c 128,-1,32
EndSplineSet
EndChar
StartChar: s
Encoding: 115 115 188
Width: 632
GlyphClass: 2
Flags: W
AnchorPoint: "Anchor-1" 363 496 basechar 0
AnchorPoint: "Anchor-0" 291 0 basechar 0
LayerCount: 2
Fore
SplineSet
161 20 m 128,-1,1
 98 52 98 52 77 116 c 1,2,-1
 155 143 l 1,3,4
 165 98 165 98 208.5 76.5 c 128,-1,5
 252 55 252 55 307 55 c 0,6,7
 359 55 359 55 394 76.5 c 128,-1,8
 429 98 429 98 429 138 c 0,9,10
 429 166 429 166 406 182 c 128,-1,11
 383 198 383 198 335 213 c 2,12,-1
 258 238 l 2,13,14
 200 257 200 257 169 287.5 c 128,-1,15
 138 318 138 318 138 363 c 256,16,17
 138 408 138 408 166 440.5 c 128,-1,18
 194 473 194 473 240.5 490 c 128,-1,19
 287 507 287 507 339 507 c 0,20,21
 409 507 409 507 464.5 480.5 c 128,-1,22
 520 454 520 454 540 400 c 1,23,-1
 464 373 l 1,24,25
 454 408 454 408 416 424 c 128,-1,26
 378 440 378 440 332 440 c 256,27,28
 286 440 286 440 253.5 422 c 128,-1,29
 221 404 221 404 221 371 c 0,30,31
 221 328 221 328 295 305 c 2,32,-1
 374 279 l 2,33,34
 443 256 443 256 477.5 226 c 128,-1,35
 512 196 512 196 512 149 c 0,36,37
 512 100 512 100 484 63.5 c 128,-1,38
 456 27 456 27 409 7.5 c 128,-1,39
 362 -12 362 -12 304 -12 c 0,40,0
 224 -12 224 -12 161 20 c 128,-1,1
EndSplineSet
EndChar
StartChar: y
Encoding: 121 121 214
Width: 632
GlyphClass: 2
Flags: W
AnchorPoint: "Anchor-1" 360 496 basechar 0
AnchorPoint: "Anchor-0" 262 0 basechar 0
LayerCount: 2
Fore
SplineSet
18 -94 m 1,0,-1
 94 -94 l 2,1,2
 131 -94 131 -94 148 -84.5 c 128,-1,3
 165 -75 165 -75 184 -47 c 2,4,-1
 225 12 l 1,5,-1
 113 496 l 1,6,-1
 201 496 l 1,7,-1
 282 108 l 1,8,-1
 286 108 l 1,9,-1
 529 496 l 1,10,-1
 625 496 l 1,11,-1
 280 -28 l 2,12,13
 241 -88 241 -88 218 -114 c 128,-1,14
 195 -140 195 -140 166 -151 c 128,-1,15
 137 -162 137 -162 86 -162 c 2,16,-1
 4 -162 l 1,17,-1
 18 -94 l 1,0,-1
EndSplineSet
EndChar
StartChar: exclamdown
Encoding: 161 161 255
Width: 632
GlyphClass: 1
Flags: W
LayerCount: 2
Fore
SplineSet
220 2 m 1,0,-1
 302 305 l 1,1,-1
 355 305 l 1,2,-1
 309 2 l 1,3,-1
 272 -170 l 1,4,-1
 184 -170 l 1,5,-1
 220 2 l 1,0,-1
314.5 402.5 m 128,-1,7
 296 421 296 421 296 447 c 256,8,9
 296 473 296 473 314.5 491.5 c 128,-1,10
 333 510 333 510 359 510 c 256,11,12
 385 510 385 510 403.5 491.5 c 128,-1,13
 422 473 422 473 422 447 c 256,14,15
 422 421 422 421 403.5 402.5 c 128,-1,16
 385 384 385 384 359 384 c 256,17,6
 333 384 333 384 314.5 402.5 c 128,-1,7
EndSplineSet
EndChar
StartChar: cent
Encoding: 162 162 302
Width: 632
GlyphClass: 1
Flags: W
LayerCount: 2
Fore
SplineSet
146.5 63 m 128,-1,1
 108 117 108 117 108 197 c 0,2,3
 108 274 108 274 140 343.5 c 128,-1,4
 172 413 172 413 230.5 457.5 c 128,-1,5
 289 502 289 502 363 505 c 1,6,-1
 380 586 l 1,7,-1
 429 586 l 1,8,-1
 411 502 l 1,9,10
 460 495 460 495 498 467 c 128,-1,11
 536 439 536 439 556 390 c 1,12,-1
 481 366 l 1,13,14
 469 393 469 393 447 409 c 128,-1,15
 425 425 425 425 396 430 c 1,16,-1
 318 60 l 1,17,18
 399 62 399 62 443 125 c 1,19,-1
 518 95 l 1,20,21
 480 42 480 42 424.5 15.5 c 128,-1,22
 369 -11 369 -11 302 -12 c 1,23,-1
 285 -90 l 1,24,-1
 236 -90 l 1,25,-1
 254 -6 l 1,26,0
 185 9 185 9 146.5 63 c 128,-1,1
263.5 385 m 128,-1,28
 229 348 229 348 212 298 c 128,-1,29
 195 248 195 248 195 202 c 0,30,31
 195 152 195 152 214.5 117 c 128,-1,32
 234 82 234 82 271 69 c 1,33,-1
 347 430 l 1,34,27
 298 422 298 422 263.5 385 c 128,-1,28
EndSplineSet
EndChar
StartChar: yen
Encoding: 165 165 308
Width: 632
GlyphClass: 1
Flags: W
LayerCount: 2
Fore
SplineSet
237 87 m 1,0,-1
 86 87 l 1,1,-1
 96 137 l 1,2,-1
 248 137 l 1,3,-1
 266 224 l 1,4,-1
 115 224 l 1,5,-1
 125 274 l 1,6,-1
 267 274 l 1,7,-1
 128 668 l 1,8,-1
 225 668 l 1,9,-1
 332 344 l 1,10,-1
 336 344 l 1,11,-1
 580 668 l 1,12,-1
 682 668 l 1,13,-1
 375 274 l 1,14,-1
 517 274 l 1,15,-1
 507 224 l 1,16,-1
 356 224 l 1,17,-1
 338 137 l 1,18,-1
 488 137 l 1,19,-1
 478 87 l 1,20,-1
 327 87 l 1,21,-1
 309 0 l 1,22,-1
 219 0 l 1,23,-1
 237 87 l 1,0,-1
EndSplineSet
EndChar
StartChar: registered
Encoding: 174 174 293
Width: 632
GlyphClass: 1
Flags: W
LayerCount: 2
Fore
SplineSet
180.5 33.5 m 128,-1,1
 113 80 113 80 75.5 159 c 128,-1,2
 38 238 38 238 38 334 c 0,3,4
 38 429 38 429 75.5 508.5 c 128,-1,5
 113 588 113 588 180.5 634 c 128,-1,6
 248 680 248 680 334 680 c 256,7,8
 420 680 420 680 487.5 634 c 128,-1,9
 555 588 555 588 592.5 508.5 c 128,-1,10
 630 429 630 429 630 334 c 0,11,12
 630 238 630 238 592.5 159 c 128,-1,13
 555 80 555 80 487.5 33.5 c 128,-1,14
 420 -13 420 -13 334 -13 c 256,15,0
 248 -13 248 -13 180.5 33.5 c 128,-1,1
460 77 m 128,-1,17
 515 116 515 116 545.5 183.5 c 128,-1,18
 576 251 576 251 576 334 c 0,19,20
 576 416 576 416 545.5 483.5 c 128,-1,21
 515 551 515 551 459.5 590 c 128,-1,22
 404 629 404 629 334 629 c 256,23,24
 264 629 264 629 208.5 590 c 128,-1,25
 153 551 153 551 122.5 483.5 c 128,-1,26
 92 416 92 416 92 334 c 0,27,28
 92 251 92 251 122.5 183.5 c 128,-1,29
 153 116 153 116 208 77 c 128,-1,30
 263 38 263 38 334 38 c 256,31,16
 405 38 405 38 460 77 c 128,-1,17
217 529 m 1,32,-1
 334 529 l 2,33,34
 395 529 395 529 429.5 500 c 128,-1,35
 464 471 464 471 464 416 c 0,36,37
 464 380 464 380 445.5 352 c 128,-1,38
 427 324 427 324 388 311 c 1,39,-1
 481 162 l 1,40,-1
 409 162 l 1,41,-1
 324 301 l 1,42,-1
 280 301 l 1,43,-1
 280 162 l 1,44,-1
 217 162 l 1,45,-1
 217 529 l 1,32,-1
398 416 m 0,47,48
 398 448 398 448 380 461.5 c 128,-1,49
 362 475 362 475 327 475 c 2,50,-1
 280 475 l 1,51,-1
 280 356 l 1,52,-1
 331 356 l 2,53,46
 398 356 398 356 398 416 c 0,47,48
EndSplineSet
EndChar
StartChar: paragraph
Encoding: 182 182 290
Width: 632
GlyphClass: 1
Flags: W
LayerCount: 2
Fore
SplineSet
177.5 359.5 m 128,-1,1
 141 404 141 404 141 461 c 0,2,3
 141 483 141 483 145 500 c 0,4,5
 161 577 161 577 225 622.5 c 128,-1,6
 289 668 289 668 379 668 c 2,7,-1
 638 668 l 1,8,-1
 627 615 l 1,9,-1
 588 615 l 1,10,-1
 423 -162 l 1,11,-1
 357 -162 l 1,12,-1
 522 615 l 1,13,-1
 414 615 l 1,14,-1
 249 -162 l 1,15,-1
 183 -162 l 1,16,-1
 281 297 l 1,17,0
 214 315 214 315 177.5 359.5 c 128,-1,1
EndSplineSet
EndChar
StartChar: Oslash
Encoding: 216 216 68
Width: 632
GlyphClass: 2
Flags: W
AnchorPoint: "Anchor-3" 715 668 basechar 0
AnchorPoint: "Anchor-2" 527 10 basechar 0
AnchorPoint: "Anchor-1" 406 668 basechar 0
AnchorPoint: "Anchor-0" 264 0 basechar 0
LayerCount: 2
Fore
SplineSet
109 65 m 1,1,-1
 40 -6 l 1,2,-1
 4 28 l 1,3,-1
 82 108 l 1,4,5
 52 170 52 170 52 255 c 0,6,7
 52 354 52 354 89 452 c 128,-1,8
 126 550 126 550 200 615 c 128,-1,9
 274 680 274 680 379 680 c 0,10,11
 498 680 498 680 560 602 c 1,12,-1
 628 673 l 1,13,-1
 665 639 l 1,14,-1
 587 559 l 1,15,16
 616 500 616 500 616 413 c 0,17,18
 616 314 616 314 579 216 c 128,-1,19
 542 118 542 118 468 53 c 128,-1,20
 394 -12 394 -12 289 -12 c 0,21,0
 172 -12 172 -12 109 65 c 1,1,-1
424.5 118 m 128,-1,23
 478 175 478 175 504 257 c 128,-1,24
 530 339 530 339 530 411 c 0,25,26
 530 451 530 451 519 486 c 1,27,-1
 168 127 l 1,28,29
 207 61 207 61 293 61 c 0,30,22
 371 61 371 61 424.5 118 c 128,-1,23
375 607 m 0,32,33
 297 607 297 607 243.5 549.5 c 128,-1,34
 190 492 190 492 164 410.5 c 128,-1,35
 138 329 138 329 138 256 c 0,36,37
 138 215 138 215 150 180 c 1,38,-1
 501 540 l 1,39,31
 460 607 460 607 375 607 c 0,32,33
EndSplineSet
EndChar
StartChar: Thorn
Encoding: 222 222 72
Width: 632
GlyphClass: 2
Flags: W
AnchorPoint: "Anchor-1" 395 668 basechar 0
AnchorPoint: "Anchor-0" 253 0 basechar 0
LayerCount: 2
Fore
SplineSet
193 668 m 1,0,-1
 277 668 l 1,1,-1
 250 540 l 1,2,-1
 366 540 l 2,3,4
 473 540 473 540 534 493.5 c 128,-1,5
 595 447 595 447 595 365 c 0,6,7
 595 297 595 297 565.5 246.5 c 128,-1,8
 536 196 536 196 481 168 c 128,-1,9
 426 140 426 140 352 140 c 2,10,-1
 164 140 l 1,11,-1
 135 0 l 1,12,-1
 51 0 l 1,13,-1
 193 668 l 1,0,-1
468.5 250 m 128,-1,15
 509 288 509 288 509 357 c 0,16,17
 509 412 509 412 469.5 440 c 128,-1,18
 430 468 430 468 360 468 c 2,19,-1
 235 468 l 1,20,-1
 180 212 l 1,21,-1
 354 212 l 2,22,14
 428 212 428 212 468.5 250 c 128,-1,15
EndSplineSet
EndChar
StartChar: ae
Encoding: 230 230 122
Width: 632
GlyphClass: 2
Flags: W
AnchorPoint: "Anchor-1" 369 496 basechar 0
AnchorPoint: "Anchor-0" 263 0 basechar 0
LayerCount: 2
Fore
SplineSet
21 20.5 m 128,-1,1
 -15 53 -15 53 -15 109 c 0,2,3
 -15 191 -15 191 52 237.5 c 128,-1,4
 119 284 119 284 274 289 c 1,5,-1
 278 310 l 2,6,7
 285 345 285 345 285 367 c 0,8,9
 285 446 285 446 218 446 c 0,10,11
 158 446 158 446 123 365 c 1,12,-1
 59 389 l 1,13,14
 88 447 88 447 130.5 477 c 128,-1,15
 173 507 173 507 228 507 c 0,16,17
 276 507 276 507 304.5 484 c 128,-1,18
 333 461 333 461 342 419 c 1,19,20
 371 462 371 462 409.5 484.5 c 128,-1,21
 448 507 448 507 492 507 c 0,22,23
 563 507 563 507 596.5 457 c 128,-1,24
 630 407 630 407 630 328 c 0,25,26
 630 283 630 283 619 234 c 1,27,-1
 328 234 l 1,28,29
 324 202 324 202 324 186 c 0,30,31
 324 127 324 127 347.5 88.5 c 128,-1,32
 371 50 371 50 419 50 c 0,33,34
 446 50 446 50 469 64.5 c 128,-1,35
 492 79 492 79 515 109 c 1,36,-1
 575 85 l 1,37,38
 542 39 542 39 502 13.5 c 128,-1,39
 462 -12 462 -12 412 -12 c 0,40,41
 299 -12 299 -12 271 93 c 1,42,43
 214 -12 214 -12 113 -12 c 0,44,0
 57 -12 57 -12 21 20.5 c 128,-1,1
205 81.5 m 128,-1,46
 240 115 240 115 253 183 c 2,47,-1
 263 234 l 1,48,49
 149 229 149 229 102 200 c 128,-1,50
 55 171 55 171 55 119 c 0,51,52
 55 85 55 85 74.5 66.5 c 128,-1,53
 94 48 94 48 129 48 c 0,54,45
 170 48 170 48 205 81.5 c 128,-1,46
561 335 m 0,56,57
 561 383 561 383 541.5 413.5 c 128,-1,58
 522 444 522 444 480 444 c 0,59,60
 429 444 429 444 393.5 399.5 c 128,-1,61
 358 355 358 355 339 289 c 1,62,-1
 557 289 l 1,63,55
 561 309 561 309 561 335 c 0,56,57
EndSplineSet
EndChar
StartChar: divide
Encoding: 247 247 314
Width: 632
GlyphClass: 1
Flags: W
LayerCount: 2
Fore
SplineSet
73 285 m 1,0,-1
 575 285 l 1,1,-1
 559 211 l 1,2,-1
 57 211 l 1,3,-1
 73 285 l 1,0,-1
234.5 34 m 128,-1,5
 216 53 216 53 216 80 c 0,6,7
 216 106 216 106 234.5 124.5 c 128,-1,8
 253 143 253 143 280 143 c 256,9,10
 307 143 307 143 325 124.5 c 128,-1,11
 343 106 343 106 343 80 c 0,12,13
 343 53 343 53 325 34 c 128,-1,14
 307 15 307 15 280 15 c 256,15,4
 253 15 253 15 234.5 34 c 128,-1,5
306.5 372 m 128,-1,17
 288 390 288 390 288 417 c 256,18,19
 288 444 288 444 307 462.5 c 128,-1,20
 326 481 326 481 352 481 c 0,21,22
 379 481 379 481 397 462.5 c 128,-1,23
 415 444 415 444 415 417 c 256,24,25
 415 390 415 390 397 372 c 128,-1,26
 379 354 379 354 352 354 c 256,27,16
 325 354 325 354 306.5 372 c 128,-1,17
EndSplineSet
EndChar
StartChar: Aogonek
Encoding: 260 260 9
Width: 632
GlyphClass: 2
Flags: W
AnchorPoint: "Anchor-1" 405 668 basechar 0
LayerCount: 2
Fore
SplineSet
359 668 m 1,0,-1
 452 668 l 1,1,-1
 545 0 l 1,2,3
 506 -9 506 -9 473 -32.5 c 128,-1,4
 440 -56 440 -56 440 -85 c 0,5,6
 440 -118 440 -118 489 -118 c 0,7,8
 506 -118 506 -118 520 -114 c 1,9,-1
 510 -166 l 1,10,11
 493 -170 493 -170 475 -170 c 0,12,13
 430 -170 430 -170 397.5 -151.5 c 128,-1,14
 365 -133 365 -133 365 -99 c 0,15,16
 365 -36 365 -36 463 7 c 1,17,-1
 443 153 l 1,18,-1
 152 153 l 1,19,-1
 67 0 l 1,20,-1
 -19 0 l 1,21,-1
 359 668 l 1,0,-1
436 226 m 1,22,-1
 390 577 l 1,23,-1
 386 577 l 1,24,-1
 190 226 l 1,25,-1
 436 226 l 1,22,-1
EndSplineSet
EndChar
StartChar: aogonek
Encoding: 261 261 119
Width: 632
GlyphClass: 2
Flags: W
AnchorPoint: "Anchor-1" 365 496 basechar 0
LayerCount: 2
Fore
SplineSet
327.5 -151.5 m 128,-1,1
 297 -133 297 -133 297 -100 c 0,2,3
 297 -35 297 -35 402 11 c 1,4,-1
 399 71 l 1,5,6
 370 34 370 34 323.5 11 c 128,-1,7
 277 -12 277 -12 220 -12 c 0,8,9
 151 -12 151 -12 103 21.5 c 128,-1,10
 55 55 55 55 55 115 c 0,11,12
 55 208 55 208 147.5 255 c 128,-1,13
 240 302 240 302 443 311 c 1,14,-1
 444 315 l 2,15,16
 447 332 447 332 447 347 c 0,17,18
 447 390 447 390 419 417 c 128,-1,19
 391 444 391 444 333 444 c 0,20,21
 286 444 286 444 253 422.5 c 128,-1,22
 220 401 220 401 209 366 c 1,23,-1
 130 390 l 1,24,25
 157 447 157 447 211 477 c 128,-1,26
 265 507 265 507 335 507 c 0,27,28
 427 507 427 507 477.5 469 c 128,-1,29
 528 431 528 431 528 354 c 0,30,31
 528 324 528 324 521 292 c 2,32,-1
 500 191 l 2,33,34
 476 81 476 81 476 0 c 1,35,36
 434 -11 434 -11 402 -34.5 c 128,-1,37
 370 -58 370 -58 370 -86 c 0,38,39
 370 -103 370 -103 384.5 -110.5 c 128,-1,40
 399 -118 399 -118 421 -118 c 0,41,42
 440 -118 440 -118 452 -115 c 1,43,-1
 441 -166 l 1,44,45
 422 -170 422 -170 402 -170 c 0,46,0
 358 -170 358 -170 327.5 -151.5 c 128,-1,1
353.5 89 m 128,-1,48
 403 126 403 126 418 193 c 2,49,-1
 430 251 l 1,50,51
 274 245 274 245 208 211.5 c 128,-1,52
 142 178 142 178 142 125 c 0,53,54
 142 92 142 92 170 72 c 128,-1,55
 198 52 198 52 244 52 c 0,56,47
 304 52 304 52 353.5 89 c 128,-1,48
EndSplineSet
EndChar
StartChar: dcaron
Encoding: 271 271 130
Width: 632
GlyphClass: 1
Flags: W
LayerCount: 2
Fore
SplineSet
75.5 44.5 m 128,-1,1
 31 101 31 101 31 190 c 0,2,3
 31 270 31 270 60.5 343 c 128,-1,4
 90 416 90 416 147 461.5 c 128,-1,5
 204 507 204 507 283 507 c 0,6,7
 336 507 336 507 375 482 c 128,-1,8
 414 457 414 457 432 408 c 1,9,-1
 494 708 l 1,10,-1
 578 708 l 1,11,-1
 468 186 l 2,12,13
 447 90 447 90 445 0 c 1,14,-1
 366 0 l 1,15,-1
 361 69 l 1,16,17
 327 31 327 31 286 9.5 c 128,-1,18
 245 -12 245 -12 200 -12 c 0,19,0
 120 -12 120 -12 75.5 44.5 c 128,-1,1
325.5 99.5 m 128,-1,21
 365 141 365 141 385 199.5 c 128,-1,22
 405 258 405 258 405 308 c 0,23,24
 405 367 405 367 376.5 402 c 128,-1,25
 348 437 348 437 292 437 c 0,26,27
 234 437 234 437 194 399.5 c 128,-1,28
 154 362 154 362 135 307 c 128,-1,29
 116 252 116 252 116 199 c 0,30,31
 116 136 116 136 145.5 97 c 128,-1,32
 175 58 175 58 229 58 c 0,33,20
 286 58 286 58 325.5 99.5 c 128,-1,21
651.5 706.5 m 128,-1,35
 663 719 663 719 679 719 c 0,36,37
 690 719 690 719 697.5 713.5 c 128,-1,38
 705 708 705 708 705 697 c 0,39,40
 705 680 705 680 683 641 c 2,41,-1
 625 537 l 1,42,-1
 584 537 l 1,43,-1
 630 667 l 2,44,34
 640 694 640 694 651.5 706.5 c 128,-1,35
EndSplineSet
EndChar
StartChar: Eogonek
Encoding: 280 280 31
Width: 632
GlyphClass: 2
Flags: W
AnchorPoint: "Anchor-1" 284 668 basechar 0
LayerCount: 2
Fore
SplineSet
212 668 m 1,0,-1
 630 668 l 1,1,-1
 614 591 l 1,2,-1
 284 591 l 1,3,-1
 239 382 l 1,4,-1
 487 382 l 1,5,-1
 471 306 l 1,6,-1
 223 306 l 1,7,-1
 175 77 l 1,8,-1
 508 77 l 1,9,-1
 492 0 l 1,10,11
 453 -9 453 -9 420 -32.5 c 128,-1,12
 387 -56 387 -56 387 -85 c 0,13,14
 387 -118 387 -118 436 -118 c 0,15,16
 453 -118 453 -118 467 -114 c 1,17,-1
 456 -166 l 1,18,19
 440 -170 440 -170 422 -170 c 0,20,21
 377 -170 377 -170 344.5 -151.5 c 128,-1,22
 312 -133 312 -133 312 -99 c 0,23,24
 312 -42 312 -42 395 0 c 1,25,-1
 70 0 l 1,26,-1
 212 668 l 1,0,-1
EndSplineSet
EndChar
StartChar: uni0162
Encoding: 354 354 85
Width: 632
GlyphClass: 2
Flags: W
AnchorPoint: "Anchor-1" 405 668 basechar 0
LayerCount: 2
Fore
SplineSet
345 591 m 1,0,-1
 132 591 l 1,1,-1
 148 668 l 1,2,-1
 662 668 l 1,3,-1
 646 591 l 1,4,-1
 433 591 l 1,5,-1
 307 0 l 1,6,-1
 286 0 l 1,7,-1
 245 -47 l 1,8,9
 252 -45 252 -45 265 -45 c 0,10,11
 294 -45 294 -45 314 -60.5 c 128,-1,12
 334 -76 334 -76 334 -100 c 0,13,14
 334 -136 334 -136 305.5 -158 c 128,-1,15
 277 -180 277 -180 234 -180 c 0,16,17
 186 -180 186 -180 143 -153 c 1,18,-1
 164 -122 l 1,19,20
 195 -142 195 -142 228 -142 c 0,21,22
 248 -142 248 -142 261 -132 c 128,-1,23
 274 -122 274 -122 274 -107 c 0,24,25
 274 -93 274 -93 263.5 -86 c 128,-1,26
 253 -79 253 -79 236 -79 c 2,27,-1
 206 -81 l 2,28,29
 192 -81 192 -81 192 -69 c 0,30,31
 192 -61 192 -61 198 -52 c 2,32,-1
 242 0 l 1,33,-1
 219 0 l 1,34,-1
 345 591 l 1,0,-1
EndSplineSet
Substitution2: "'locl' Localized Forms in Latin lookup 4 subtable" uni021A
AlternateSubs2: "'aalt' Access All Alternates in Latin lookup 0 subtable" uni021A
EndChar
StartChar: Uring
Encoding: 366 366 95
Width: 632
GlyphClass: 2
Flags: W
AnchorPoint: "Anchor-3" 729 668 basechar 0
AnchorPoint: "Anchor-1" 424 887 basechar 0
LayerCount: 2
Fore
SplineSet
128 35 m 128,-1,1
 70 82 70 82 70 180 c 0,2,3
 70 228 70 228 81 276 c 2,4,-1
 164 668 l 1,5,-1
 253 668 l 1,6,-1
 165 258 l 2,7,8
 157 218 157 218 157 189 c 0,9,10
 157 61 157 61 299 61 c 0,11,12
 367 61 367 61 406.5 102 c 128,-1,13
 446 143 446 143 463 225 c 2,14,-1
 557 668 l 1,15,-1
 646 668 l 1,16,-1
 552 226 l 2,17,18
 527 105 527 105 467 46.5 c 128,-1,19
 407 -12 407 -12 302 -12 c 0,20,0
 186 -12 186 -12 128 35 c 128,-1,1
325 703 m 128,-1,22
 293 735 293 735 293 779 c 256,23,24
 293 823 293 823 325 855 c 128,-1,25
 357 887 357 887 403 887 c 0,26,27
 448 887 448 887 478.5 855.5 c 128,-1,28
 509 824 509 824 509 779 c 256,29,30
 509 734 509 734 478.5 702.5 c 128,-1,31
 448 671 448 671 403 671 c 0,32,21
 357 671 357 671 325 703 c 128,-1,22
438 743 m 128,-1,34
 453 758 453 758 453 779 c 256,35,36
 453 800 453 800 438 815 c 128,-1,37
 423 830 423 830 401 830 c 256,38,39
 379 830 379 830 363.5 815 c 128,-1,40
 348 800 348 800 348 779 c 256,41,42
 348 758 348 758 363.5 743 c 128,-1,43
 379 728 379 728 401 728 c 256,44,33
 423 728 423 728 438 743 c 128,-1,34
EndSplineSet
EndChar
StartChar: Uogonek
Encoding: 370 370 94
Width: 632
GlyphClass: 2
Flags: W
AnchorPoint: "Anchor-3" 729 668 basechar 0
AnchorPoint: "Anchor-1" 401 668 basechar 0
LayerCount: 2
Fore
SplineSet
305.5 -151.5 m 128,-1,1
 275 -133 275 -133 275 -98 c 0,2,3
 275 -56 275 -56 321 -10 c 1,4,5
 70 -18 70 -18 70 185 c 0,6,7
 70 223 70 223 81 276 c 2,8,-1
 164 668 l 1,9,-1
 253 668 l 1,10,-1
 165 258 l 2,11,12
 157 218 157 218 157 189 c 0,13,14
 157 61 157 61 299 61 c 0,15,16
 367 61 367 61 406.5 102 c 128,-1,17
 446 143 446 143 463 225 c 2,18,-1
 557 668 l 1,19,-1
 646 668 l 1,20,-1
 552 226 l 2,21,22
 518 65 518 65 413 10 c 0,23,24
 385 -4 385 -4 367 -29 c 128,-1,25
 349 -54 349 -54 349 -79 c 0,26,27
 349 -98 349 -98 363 -108 c 128,-1,28
 377 -118 377 -118 401 -118 c 0,29,30
 414 -118 414 -118 430 -114 c 1,31,-1
 419 -166 l 1,32,33
 400 -170 400 -170 385 -170 c 0,34,0
 336 -170 336 -170 305.5 -151.5 c 128,-1,1
EndSplineSet
EndChar
StartChar: uogonek
Encoding: 371 371 205
Width: 632
GlyphClass: 2
Flags: W
AnchorPoint: "Anchor-3" 614 496 basechar 0
AnchorPoint: "Anchor-1" 359 496 basechar 0
LayerCount: 2
Fore
SplineSet
122.5 26.5 m 128,-1,1
 86 65 86 65 86 130 c 0,2,3
 86 161 86 161 93 190 c 2,4,-1
 158 496 l 1,5,-1
 244 496 l 1,6,-1
 182 204 l 2,7,8
 175 169 175 169 175 148 c 0,9,10
 175 58 175 58 268 58 c 0,11,12
 324 58 324 58 370.5 104.5 c 128,-1,13
 417 151 417 151 434 229 c 2,14,-1
 491 496 l 1,15,-1
 576 496 l 1,16,-1
 471 0 l 1,17,18
 429 -11 429 -11 397 -34.5 c 128,-1,19
 365 -58 365 -58 365 -86 c 0,20,21
 365 -103 365 -103 379 -110.5 c 128,-1,22
 393 -118 393 -118 415 -118 c 0,23,24
 434 -118 434 -118 446 -115 c 1,25,-1
 435 -166 l 1,26,27
 418 -170 418 -170 396 -170 c 0,28,29
 352 -170 352 -170 321.5 -151.5 c 128,-1,30
 291 -133 291 -133 291 -100 c 0,31,32
 291 -33 291 -33 402 14 c 1,33,-1
 404 76 l 1,34,35
 373 40 373 40 329 14 c 128,-1,36
 285 -12 285 -12 233 -12 c 0,37,0
 159 -12 159 -12 122.5 26.5 c 128,-1,1
EndSplineSet
EndChar
StartChar: uni0237
Encoding: 567 567 159
Width: 632
GlyphClass: 2
Flags: W
AnchorPoint: "Anchor-1" 400 496 basechar 0
AnchorPoint: "Anchor-0" 236 -251 basechar 0
LayerCount: 2
Fore
SplineSet
19 -91 m 1,0,-1
 188 -91 l 2,1,2
 223 -91 223 -91 236.5 -75.5 c 128,-1,3
 250 -60 250 -60 260 -13 c 2,4,-1
 354 429 l 1,5,-1
 204 429 l 1,6,-1
 219 496 l 1,7,-1
 454 496 l 1,8,-1
 343 -25 l 2,9,10
 331 -78 331 -78 315.5 -106.5 c 128,-1,11
 300 -135 300 -135 272.5 -148.5 c 128,-1,12
 245 -162 245 -162 198 -162 c 2,13,-1
 4 -162 l 1,14,-1
 19 -91 l 1,0,-1
EndSplineSet
EndChar
StartChar: gravecomb
Encoding: 768 768 340
Width: 0
GlyphClass: 4
Flags: W
AnchorPoint: "Anchor-5" 459 706 basemark 0
AnchorPoint: "Anchor-5" 415 496 mark 0
AnchorPoint: "Anchor-1" 415 496 mark 0
LayerCount: 2
Fore
SplineSet
330.5 643 m 128,-1,1
 325 653 325 653 325 664 c 0,2,3
 325 681 325 681 336.5 693.5 c 128,-1,4
 348 706 348 706 364 706 c 0,5,6
 375 706 375 706 382.5 698.5 c 128,-1,7
 390 691 390 691 399 674 c 2,8,-1
 458 571 l 1,9,-1
 398 571 l 1,10,-1
 351 619 l 2,11,0
 336 633 336 633 330.5 643 c 128,-1,1
EndSplineSet
Substitution2: "Single Substitution lookup 12 subtable" gravecomb.case
Substitution2: "'case' Case-Sensitive Forms in Latin lookup 9 subtable" gravecomb.case
AlternateSubs2: "'aalt' Access All Alternates in Latin lookup 0 subtable" gravecomb.case
EndChar
StartChar: uni0307
Encoding: 775 775 337
Width: 0
GlyphClass: 4
Flags: W
AnchorPoint: "Anchor-5" 412 698 basemark 0
AnchorPoint: "Anchor-5" 369 496 mark 0
AnchorPoint: "Anchor-1" 369 496 mark 0
LayerCount: 2
Fore
SplineSet
362 605.5 m 128,-1,1
 346 622 346 622 346 644 c 256,2,3
 346 666 346 666 362 682 c 128,-1,4
 378 698 378 698 400 698 c 0,5,6
 423 698 423 698 439 682 c 128,-1,7
 455 666 455 666 455 644 c 256,8,9
 455 622 455 622 439 605.5 c 128,-1,10
 423 589 423 589 400 589 c 0,11,0
 378 589 378 589 362 605.5 c 128,-1,1
EndSplineSet
Substitution2: "Single Substitution lookup 12 subtable" uni0307.case
Substitution2: "'case' Case-Sensitive Forms in Latin lookup 9 subtable" uni0307.case
AlternateSubs2: "'aalt' Access All Alternates in Latin lookup 0 subtable" uni0307.case
EndChar
StartChar: uni0308
Encoding: 776 776 335
Width: 0
GlyphClass: 4
Flags: W
AnchorPoint: "Anchor-5" 412 698 basemark 0
AnchorPoint: "Anchor-5" 369 496 mark 0
AnchorPoint: "Anchor-1" 369 496 mark 0
LayerCount: 2
Fore
SplineSet
450 606.5 m 128,-1,1
 434 622 434 622 434 644 c 0,2,3
 434 667 434 667 450 682.5 c 128,-1,4
 466 698 466 698 488 698 c 256,5,6
 510 698 510 698 525.5 682 c 128,-1,7
 541 666 541 666 541 644 c 256,8,9
 541 622 541 622 525.5 606.5 c 128,-1,10
 510 591 510 591 488 591 c 256,11,0
 466 591 466 591 450 606.5 c 128,-1,1
276 606.5 m 128,-1,13
 260 622 260 622 260 644 c 0,14,15
 260 667 260 667 276 682.5 c 128,-1,16
 292 698 292 698 314 698 c 256,17,18
 336 698 336 698 352 682 c 128,-1,19
 368 666 368 666 368 644 c 256,20,21
 368 622 368 622 352 606.5 c 128,-1,22
 336 591 336 591 314 591 c 256,23,12
 292 591 292 591 276 606.5 c 128,-1,13
EndSplineSet
Substitution2: "Single Substitution lookup 12 subtable" uni0308.case
Substitution2: "'case' Case-Sensitive Forms in Latin lookup 9 subtable" uni0308.case
AlternateSubs2: "'aalt' Access All Alternates in Latin lookup 0 subtable" uni0308.case
EndChar
StartChar: uni030A
Encoding: 778 778 353
Width: 0
GlyphClass: 4
Flags: W
AnchorPoint: "Anchor-5" 427 773 basemark 0
AnchorPoint: "Anchor-5" 368 496 mark 0
AnchorPoint: "Anchor-1" 368 496 mark 0
LayerCount: 2
Fore
SplineSet
331 594 m 128,-1,1
 300 625 300 625 300 668 c 0,2,3
 300 712 300 712 331 742.5 c 128,-1,4
 362 773 362 773 405 773 c 0,5,6
 449 773 449 773 479.5 742.5 c 128,-1,7
 510 712 510 712 510 668 c 256,8,9
 510 624 510 624 479.5 593.5 c 128,-1,10
 449 563 449 563 405 563 c 0,11,0
 362 563 362 563 331 594 c 128,-1,1
442.5 630.5 m 128,-1,13
 458 646 458 646 458 668 c 256,14,15
 458 690 458 690 442.5 705.5 c 128,-1,16
 427 721 427 721 405 721 c 256,17,18
 383 721 383 721 367.5 705.5 c 128,-1,19
 352 690 352 690 352 668 c 256,20,21
 352 646 352 646 367.5 630.5 c 128,-1,22
 383 615 383 615 405 615 c 256,23,12
 427 615 427 615 442.5 630.5 c 128,-1,13
EndSplineSet
Substitution2: "Single Substitution lookup 12 subtable" uni030A.case
Substitution2: "'case' Case-Sensitive Forms in Latin lookup 9 subtable" uni030A.case
AlternateSubs2: "'aalt' Access All Alternates in Latin lookup 0 subtable" uni030A.case
EndChar
StartChar: uni030B
Encoding: 779 779 344
Width: 0
GlyphClass: 4
Flags: W
AnchorPoint: "Anchor-5" 463 705 basemark 0
AnchorPoint: "Anchor-5" 330 496 mark 0
AnchorPoint: "Anchor-1" 330 496 mark 0
LayerCount: 2
Fore
SplineSet
357 697.5 m 128,-1,1
 370 705 370 705 384 705 c 0,2,3
 399 705 399 705 407 698 c 128,-1,4
 415 691 415 691 415 680 c 0,5,6
 415 663 415 663 404 651 c 128,-1,7
 393 639 393 639 366 620 c 2,8,-1
 299 571 l 1,9,-1
 228 571 l 1,10,-1
 329 674 l 2,11,0
 344 690 344 690 357 697.5 c 128,-1,1
513 697.5 m 128,-1,13
 526 705 526 705 540 705 c 0,14,15
 555 705 555 705 563.5 698 c 128,-1,16
 572 691 572 691 572 680 c 0,17,18
 572 664 572 664 561 652 c 128,-1,19
 550 640 550 640 522 620 c 2,20,-1
 455 571 l 1,21,-1
 384 571 l 1,22,-1
 485 674 l 2,23,12
 500 690 500 690 513 697.5 c 128,-1,13
EndSplineSet
Substitution2: "Single Substitution lookup 12 subtable" uni030B.case
Substitution2: "'case' Case-Sensitive Forms in Latin lookup 9 subtable" uni030B.case
AlternateSubs2: "'aalt' Access All Alternates in Latin lookup 0 subtable" uni030B.case
EndChar
StartChar: uni0327
Encoding: 807 807 360
Width: 0
GlyphClass: 4
Flags: W
AnchorPoint: "Anchor-4" 223 -181 basemark 0
AnchorPoint: "Anchor-4" 261 0 mark 0
AnchorPoint: "Anchor-0" 261 0 mark 0
LayerCount: 2
Fore
SplineSet
140 -153 m 1,1,-1
 160 -122 l 1,2,3
 191 -142 191 -142 224 -142 c 0,4,5
 244 -142 244 -142 257 -132 c 128,-1,6
 270 -122 270 -122 270 -107 c 0,7,8
 270 -93 270 -93 259.5 -86 c 128,-1,9
 249 -79 249 -79 232 -79 c 2,10,-1
 205 -81 l 1,11,-1
 202 -81 l 2,12,13
 188 -81 188 -81 188 -69 c 0,14,15
 188 -60 188 -60 195 -52 c 2,16,-1
 256 23 l 1,17,-1
 286 5 l 1,18,-1
 241 -47 l 1,19,20
 248 -45 248 -45 261 -45 c 0,21,22
 290 -45 290 -45 310 -60.5 c 128,-1,23
 330 -76 330 -76 330 -100 c 0,24,25
 330 -136 330 -136 301.5 -158 c 128,-1,26
 273 -180 273 -180 230 -180 c 0,27,0
 183 -180 183 -180 140 -153 c 1,1,-1
EndSplineSet
EndChar
StartChar: uni0328
Encoding: 808 808 361
Width: 0
GlyphClass: 4
Flags: W
AnchorPoint: "Anchor-2" 346 10 mark 0
LayerCount: 2
Fore
SplineSet
195 -151.5 m 128,-1,1
 164 -133 164 -133 164 -100 c 0,2,3
 164 -61 164 -61 198.5 -32 c 128,-1,4
 233 -3 233 -3 283 17 c 1,5,-1
 344 0 l 1,6,7
 302 -11 302 -11 270 -34.5 c 128,-1,8
 238 -58 238 -58 238 -86 c 0,9,10
 238 -103 238 -103 252.5 -110.5 c 128,-1,11
 267 -118 267 -118 289 -118 c 0,12,13
 308 -118 308 -118 320 -115 c 1,14,-1
 309 -166 l 1,15,16
 290 -170 290 -170 270 -170 c 0,17,0
 226 -170 226 -170 195 -151.5 c 128,-1,1
EndSplineSet
Substitution2: "Single Substitution lookup 12 subtable" uni0328.case
Substitution2: "'case' Case-Sensitive Forms in Latin lookup 9 subtable" uni0328.case
AlternateSubs2: "'aalt' Access All Alternates in Latin lookup 0 subtable" uni0328.case
EndChar
StartChar: uni03BC
Encoding: 956 956 227
Width: 632
GlyphClass: 1
Flags: W
LayerCount: 2
Fore
SplineSet
160 496 m 1,0,-1
 245 496 l 1,1,-1
 183 204 l 2,2,3
 176 169 176 169 176 149 c 0,4,5
 176 58 176 58 263 58 c 0,6,7
 295 58 295 58 328 79 c 128,-1,8
 361 100 361 100 386.5 138.5 c 128,-1,9
 412 177 412 177 423 229 c 2,10,-1
 480 496 l 1,11,-1
 565 496 l 1,12,-1
 486 125 l 2,13,14
 482 101 482 101 482 97 c 0,15,16
 482 82 482 82 491 76 c 128,-1,17
 500 70 500 70 522 70 c 2,18,-1
 535 70 l 1,19,-1
 521 0 l 1,20,-1
 485 0 l 2,21,22
 430 0 430 0 410.5 17.5 c 128,-1,23
 391 35 391 35 392 71 c 1,24,25
 362 33 362 33 318.5 10.5 c 128,-1,26
 275 -12 275 -12 234 -12 c 0,27,28
 176 -12 176 -12 144 24 c 1,29,-1
 105 -162 l 1,30,-1
 20 -162 l 1,31,-1
 160 496 l 1,0,-1
EndSplineSet
EndChar
StartChar: pi
Encoding: 960 960 228
Width: 632
GlyphClass: 1
Flags: W
LayerCount: 2
Fore
SplineSet
172 430 m 1,0,-1
 95 430 l 1,1,-1
 109 496 l 1,2,-1
 611 496 l 1,3,-1
 596 430 l 1,4,-1
 512 430 l 1,5,-1
 448 129 l 2,6,7
 444 112 444 112 444 97 c 0,8,9
 444 79 444 79 454 72.5 c 128,-1,10
 464 66 464 66 489 66 c 2,11,-1
 519 66 l 1,12,-1
 505 0 l 1,13,-1
 479 0 l 2,14,15
 413 0 413 0 387.5 14.5 c 128,-1,16
 362 29 362 29 362 68 c 0,17,18
 362 88 362 88 370 125 c 2,19,-1
 435 430 l 1,20,-1
 249 430 l 1,21,-1
 157 0 l 1,22,-1
 80 0 l 1,23,-1
 172 430 l 1,0,-1
EndSplineSet
EndChar
StartChar: quoteleft
Encoding: 8216 8216 278
Width: 632
GlyphClass: 1
Flags: W
LayerCount: 2
Fore
SplineSet
313.5 424 m 128,-1,1
 294 444 294 444 294 470 c 0,2,3
 294 484 294 484 298 494.5 c 128,-1,4
 302 505 302 505 311 518 c 2,5,-1
 409 677 l 1,6,-1
 472 677 l 1,7,-1
 387 540 l 1,8,9
 408 532 408 532 420.5 514 c 128,-1,10
 433 496 433 496 433 474 c 0,11,12
 433 445 433 445 412.5 424.5 c 128,-1,13
 392 404 392 404 363 404 c 0,14,0
 333 404 333 404 313.5 424 c 128,-1,1
EndSplineSet
EndChar
StartChar: quotedblbase
Encoding: 8222 8222 275
Width: 632
GlyphClass: 1
Flags: W
LayerCount: 2
Fore
SplineSet
119.5 13.5 m 128,-1,1
 107 31 107 31 107 53 c 0,2,3
 107 81 107 81 127 101.5 c 128,-1,4
 147 122 147 122 175 122 c 0,5,6
 205 122 205 122 224 102.5 c 128,-1,7
 243 83 243 83 243 57 c 0,8,9
 243 33 243 33 227 10 c 2,10,-1
 130 -145 l 1,11,-1
 68 -145 l 1,12,-1
 153 -12 l 1,13,0
 132 -4 132 -4 119.5 13.5 c 128,-1,1
320.5 14 m 128,-1,15
 308 31 308 31 308 53 c 0,16,17
 308 81 308 81 328 101.5 c 128,-1,18
 348 122 348 122 376 122 c 0,19,20
 406 122 406 122 425 102.5 c 128,-1,21
 444 83 444 83 444 57 c 0,22,23
 444 33 444 33 428 10 c 2,24,-1
 331 -145 l 1,25,-1
 268 -145 l 1,26,-1
 353 -12 l 1,27,14
 333 -3 333 -3 320.5 14 c 128,-1,15
EndSplineSet
EndChar
StartChar: daggerdbl
Encoding: 8225 8225 300
Width: 632
GlyphClass: 1
Flags: W
LayerCount: 2
Fore
SplineSet
262 172 m 1,0,-1
 71 172 l 1,1,-1
 88 249 l 1,2,-1
 278 249 l 1,3,-1
 314 418 l 1,4,-1
 123 418 l 1,5,-1
 140 496 l 1,6,-1
 331 496 l 1,7,-1
 368 668 l 1,8,-1
 445 668 l 1,9,-1
 408 496 l 1,10,-1
 598 496 l 1,11,-1
 582 418 l 1,12,-1
 392 418 l 1,13,-1
 356 249 l 1,14,-1
 546 249 l 1,15,-1
 530 172 l 1,16,-1
 340 172 l 1,17,-1
 303 0 l 1,18,-1
 226 0 l 1,19,-1
 262 172 l 1,0,-1
EndSplineSet
EndChar
StartChar: ellipsis
Encoding: 8230 8230 253
Width: 632
GlyphClass: 1
Flags: W
LayerCount: 2
Fore
SplineSet
21 7 m 128,-1,1
 2 26 2 26 2 54 c 0,2,3
 2 81 2 81 21.5 100 c 128,-1,4
 41 119 41 119 68 119 c 256,5,6
 95 119 95 119 114 99.5 c 128,-1,7
 133 80 133 80 133 54 c 0,8,9
 133 26 133 26 114 7 c 128,-1,10
 95 -12 95 -12 68 -12 c 0,11,0
 40 -12 40 -12 21 7 c 128,-1,1
229 7 m 128,-1,13
 210 26 210 26 210 54 c 0,14,15
 210 81 210 81 229.5 100 c 128,-1,16
 249 119 249 119 276 119 c 0,17,18
 302 119 302 119 321 99.5 c 128,-1,19
 340 80 340 80 340 54 c 0,20,21
 340 26 340 26 321 7 c 128,-1,22
 302 -12 302 -12 276 -12 c 0,23,12
 248 -12 248 -12 229 7 c 128,-1,13
437 7 m 128,-1,25
 418 26 418 26 418 54 c 0,26,27
 418 80 418 80 437 99.5 c 128,-1,28
 456 119 456 119 483 119 c 256,29,30
 510 119 510 119 529 99.5 c 128,-1,31
 548 80 548 80 548 54 c 0,32,33
 548 26 548 26 529 7 c 128,-1,34
 510 -12 510 -12 483 -12 c 256,35,24
 456 -12 456 -12 437 7 c 128,-1,25
EndSplineSet
EndChar
StartChar: perthousand
Encoding: 8240 8240 333
Width: 632
GlyphClass: 1
Flags: W
LayerCount: 2
Fore
SplineSet
143.5 457 m 128,-1,1
 105 495 105 495 105 550 c 0,2,3
 105 586 105 586 122.5 616.5 c 128,-1,4
 140 647 140 647 170.5 664.5 c 128,-1,5
 201 682 201 682 237 682 c 256,6,7
 273 682 273 682 303 664.5 c 128,-1,8
 333 647 333 647 350.5 616.5 c 128,-1,9
 368 586 368 586 368 550 c 256,10,11
 368 514 368 514 350.5 484 c 128,-1,12
 333 454 333 454 303 436.5 c 128,-1,13
 273 419 273 419 237 419 c 0,14,0
 182 419 182 419 143.5 457 c 128,-1,1
291 496 m 128,-1,16
 313 518 313 518 313 550 c 256,17,18
 313 582 313 582 291 604.5 c 128,-1,19
 269 627 269 627 237 627 c 256,20,21
 205 627 205 627 182.5 604.5 c 128,-1,22
 160 582 160 582 160 550 c 256,23,24
 160 518 160 518 182.5 496 c 128,-1,25
 205 474 205 474 237 474 c 256,26,15
 269 474 269 474 291 496 c 128,-1,16
51.5 24 m 128,-1,28
 13 62 13 62 13 117 c 0,29,30
 13 153 13 153 30.5 183.5 c 128,-1,31
 48 214 48 214 78.5 231.5 c 128,-1,32
 109 249 109 249 145 249 c 256,33,34
 181 249 181 249 211 231.5 c 128,-1,35
 241 214 241 214 258.5 183.5 c 128,-1,36
 276 153 276 153 276 117 c 256,37,38
 276 81 276 81 258.5 51 c 128,-1,39
 241 21 241 21 211 3.5 c 128,-1,40
 181 -14 181 -14 145 -14 c 0,41,27
 90 -14 90 -14 51.5 24 c 128,-1,28
199 63 m 128,-1,43
 221 85 221 85 221 117 c 256,44,45
 221 149 221 149 199 171.5 c 128,-1,46
 177 194 177 194 145 194 c 256,47,48
 113 194 113 194 90.5 171.5 c 128,-1,49
 68 149 68 149 68 117 c 256,50,51
 68 85 68 85 90.5 63 c 128,-1,52
 113 41 113 41 145 41 c 256,53,42
 177 41 177 41 199 63 c 128,-1,43
343.5 24 m 128,-1,55
 305 62 305 62 305 117 c 0,56,57
 305 153 305 153 322.5 183.5 c 128,-1,58
 340 214 340 214 370.5 231.5 c 128,-1,59
 401 249 401 249 437 249 c 256,60,61
 473 249 473 249 503 231.5 c 128,-1,62
 533 214 533 214 550.5 183.5 c 128,-1,63
 568 153 568 153 568 117 c 256,64,65
 568 81 568 81 550.5 51 c 128,-1,66
 533 21 533 21 503 3.5 c 128,-1,67
 473 -14 473 -14 437 -14 c 0,68,54
 382 -14 382 -14 343.5 24 c 128,-1,55
491 63 m 128,-1,70
 513 85 513 85 513 117 c 256,71,72
 513 149 513 149 491 171.5 c 128,-1,73
 469 194 469 194 437 194 c 256,74,75
 405 194 405 194 382.5 171.5 c 128,-1,76
 360 149 360 149 360 117 c 256,77,78
 360 85 360 85 382.5 63 c 128,-1,79
 405 41 405 41 437 41 c 256,80,69
 469 41 469 41 491 63 c 128,-1,70
58 322 m 1,81,-1
 649 514 l 1,82,-1
 636 448 l 1,83,-1
 43 256 l 1,84,-1
 58 322 l 1,81,-1
EndSplineSet
EndChar
StartChar: guilsinglright
Encoding: 8250 8250 283
Width: 632
GlyphClass: 1
Flags: W
LayerCount: 2
Fore
SplineSet
346 256 m 1,0,-1
 240 460 l 1,1,-1
 329 460 l 1,2,-1
 439 250 l 1,3,-1
 249 40 l 1,4,-1
 150 40 l 1,5,-1
 346 256 l 1,0,-1
EndSplineSet
EndChar
StartChar: uni2113
Encoding: 8467 8467 299
Width: 632
GlyphClass: 1
Flags: W
LayerCount: 2
Fore
SplineSet
188 104 m 0,1,2
 188 129 188 129 192 150 c 2,3,-1
 199 189 l 1,4,-1
 123 139 l 1,5,-1
 138 213 l 1,6,-1
 216 264 l 1,7,-1
 268 516 l 2,8,9
 285 596 285 596 324.5 638 c 128,-1,10
 364 680 364 680 423 680 c 0,11,12
 480 680 480 680 509.5 650 c 128,-1,13
 539 620 539 620 539 567 c 0,14,15
 539 472 539 472 472.5 396.5 c 128,-1,16
 406 321 406 321 294 247 c 1,17,-1
 277 160 l 2,18,19
 273 136 273 136 273 122 c 0,20,21
 273 58 273 58 332 58 c 0,22,23
 373 58 373 58 419 88 c 1,24,-1
 442 29 l 1,25,26
 417 10 417 10 382 -1 c 128,-1,27
 347 -12 347 -12 318 -12 c 0,28,0
 188 -12 188 -12 188 104 c 0,1,2
423.5 436 m 128,-1,30
 467 499 467 499 467 562 c 0,31,32
 467 588 467 588 455.5 602 c 128,-1,33
 444 616 444 616 423 616 c 0,34,35
 371 616 371 616 352 523 c 2,36,-1
 311 327 l 1,37,29
 380 373 380 373 423.5 436 c 128,-1,30
EndSplineSet
EndChar
StartChar: product
Encoding: 8719 8719 328
Width: 632
GlyphClass: 1
Flags: W
LayerCount: 2
Fore
SplineSet
173 668 m 1,0,-1
 637 668 l 1,1,-1
 461 -162 l 1,2,-1
 381 -162 l 1,3,-1
 541 589 l 1,4,-1
 235 589 l 1,5,-1
 76 -162 l 1,6,-1
 -3 -162 l 1,7,-1
 173 668 l 1,0,-1
EndSplineSet
EndChar
StartChar: infinity
Encoding: 8734 8734 326
Width: 632
GlyphClass: 1
Flags: W
LayerCount: 2
Fore
SplineSet
49.5 139 m 128,-1,1
 13 172 13 172 13 231 c 0,2,3
 13 276 13 276 32.5 316.5 c 128,-1,4
 52 357 52 357 88.5 381.5 c 128,-1,5
 125 406 125 406 173 406 c 0,6,7
 217 406 217 406 253 381 c 128,-1,8
 289 356 289 356 325 312 c 1,9,10
 361 346 361 346 383 364 c 128,-1,11
 405 382 405 382 432 394 c 128,-1,12
 459 406 459 406 490 406 c 0,13,14
 549 406 549 406 585.5 373 c 128,-1,15
 622 340 622 340 622 281 c 0,16,17
 622 236 622 236 602.5 195.5 c 128,-1,18
 583 155 583 155 546.5 130.5 c 128,-1,19
 510 106 510 106 462 106 c 0,20,21
 418 106 418 106 383 130.5 c 128,-1,22
 348 155 348 155 310 200 c 1,23,24
 259 151 259 151 225 128.5 c 128,-1,25
 191 106 191 106 145 106 c 0,26,0
 86 106 86 106 49.5 139 c 128,-1,1
206 190.5 m 128,-1,28
 233 208 233 208 279 255 c 1,29,30
 250 298 250 298 228 318.5 c 128,-1,31
 206 339 206 339 171 339 c 0,32,33
 133 339 133 339 108 310 c 128,-1,34
 83 281 83 281 83 244 c 0,35,36
 83 213 83 213 100.5 193 c 128,-1,37
 118 173 118 173 151 173 c 0,38,27
 179 173 179 173 206 190.5 c 128,-1,28
527 202 m 128,-1,40
 552 231 552 231 552 268 c 0,41,42
 552 299 552 299 534.5 319 c 128,-1,43
 517 339 517 339 484 339 c 0,44,45
 456 339 456 339 429 321.5 c 128,-1,46
 402 304 402 304 356 257 c 1,47,48
 377 226 377 226 390 210.5 c 128,-1,49
 403 195 403 195 421.5 184 c 128,-1,50
 440 173 440 173 465 173 c 0,51,39
 502 173 502 173 527 202 c 128,-1,40
EndSplineSet
EndChar
StartChar: notequal
Encoding: 8800 8800 316
Width: 632
GlyphClass: 1
Flags: W
LayerCount: 2
Fore
SplineSet
154 123 m 1,0,-1
 39 123 l 1,1,-1
 55 198 l 1,2,-1
 223 198 l 1,3,-1
 319 305 l 1,4,-1
 77 305 l 1,5,-1
 93 379 l 1,6,-1
 386 379 l 1,7,-1
 492 496 l 1,8,-1
 587 496 l 1,9,-1
 482 379 l 1,10,-1
 595 379 l 1,11,-1
 579 305 l 1,12,-1
 415 305 l 1,13,-1
 318 198 l 1,14,-1
 556 198 l 1,15,-1
 540 123 l 1,16,-1
 251 123 l 1,17,-1
 140 0 l 1,18,-1
 44 0 l 1,19,-1
 154 123 l 1,0,-1
EndSplineSet
EndChar
StartChar: lessequal
Encoding: 8804 8804 320
Width: 632
GlyphClass: 1
Flags: W
LayerCount: 2
Fore
SplineSet
83 264 m 1,0,-1
 99 338 l 1,1,-1
 602 491 l 1,2,-1
 583 405 l 1,3,-1
 199 297 l 1,4,-1
 538 190 l 1,5,-1
 522 112 l 1,6,-1
 83 264 l 1,0,-1
43 77 m 1,7,-1
 514 77 l 1,8,-1
 498 0 l 1,9,-1
 27 0 l 1,10,-1
 43 77 l 1,7,-1
EndSplineSet
EndChar
StartChar: acutecomb.case
Encoding: 65544 -1 343
Width: 0
GlyphClass: 4
Flags: W
AnchorPoint: "Anchor-5" 397 863 basemark 0
AnchorPoint: "Anchor-5" 355 668 mark 0
AnchorPoint: "Anchor-1" 355 668 mark 0
LayerCount: 2
Fore
SplineSet
473.5 845.5 m 128,-1,1
 487 852 487 852 500 852 c 0,2,3
 514 852 514 852 522.5 845 c 128,-1,4
 531 838 531 838 531 826 c 0,5,6
 531 811 531 811 519 799.5 c 128,-1,7
 507 788 507 788 480 773 c 2,8,-1
 413 736 l 1,9,-1
 333 736 l 1,10,-1
 442 824 l 2,11,0
 460 839 460 839 473.5 845.5 c 128,-1,1
EndSplineSet
EndChar
StartChar: uni0307.large
Encoding: 65542 -1 339
Width: 0
GlyphClass: 4
Flags: W
AnchorPoint: "Anchor-5" 416 715 basemark 0
AnchorPoint: "Anchor-5" 370 496 mark 0
AnchorPoint: "Anchor-1" 370 496 mark 0
LayerCount: 2
Fore
SplineSet
359 611 m 128,-1,1
 341 629 341 629 341 654 c 256,2,3
 341 679 341 679 359 697 c 128,-1,4
 377 715 377 715 402 715 c 256,5,6
 427 715 427 715 445.5 697 c 128,-1,7
 464 679 464 679 464 654 c 256,8,9
 464 629 464 629 446 611 c 128,-1,10
 428 593 428 593 402 593 c 0,11,0
 377 593 377 593 359 611 c 128,-1,1
EndSplineSet
EndChar
StartChar: uni030A.case
Encoding: 65550 -1 354
Width: 0
GlyphClass: 4
Flags: W
AnchorPoint: "Anchor-5" 442 843 basemark 0
AnchorPoint: "Anchor-5" 414 668 mark 0
AnchorPoint: "Anchor-1" 414 668 mark 0
LayerCount: 2
Fore
SplineSet
344 661.5 m 128,-1,1
 313 693 313 693 313 737 c 256,2,3
 313 781 313 781 344 812 c 128,-1,4
 375 843 375 843 419 843 c 256,5,6
 463 843 463 843 494.5 812 c 128,-1,7
 526 781 526 781 526 737 c 256,8,9
 526 693 526 693 494.5 661.5 c 128,-1,10
 463 630 463 630 419 630 c 256,11,0
 375 630 375 630 344 661.5 c 128,-1,1
456.5 699.5 m 128,-1,13
 472 715 472 715 472 737 c 0,14,15
 472 758 472 758 456.5 773.5 c 128,-1,16
 441 789 441 789 419 789 c 0,17,18
 398 789 398 789 382.5 773.5 c 128,-1,19
 367 758 367 758 367 737 c 0,20,21
 367 715 367 715 382.5 699.5 c 128,-1,22
 398 684 398 684 419 684 c 0,23,12
 441 684 441 684 456.5 699.5 c 128,-1,13
EndSplineSet
EndChar
StartChar: uni0328.alt
Encoding: 65553 -1 362
Width: 0
GlyphClass: 4
Flags: W
AnchorPoint: "Anchor-2" 345 10 mark 0
LayerCount: 2
Fore
SplineSet
195.5 -151.5 m 128,-1,1
 165 -133 165 -133 165 -98 c 0,2,3
 165 -60 165 -60 200.5 -23 c 128,-1,4
 236 14 236 14 279 31 c 1,5,-1
 333 28 l 1,6,7
 296 9 296 9 267.5 -20.5 c 128,-1,8
 239 -50 239 -50 239 -79 c 0,9,10
 239 -98 239 -98 253 -108 c 128,-1,11
 267 -118 267 -118 291 -118 c 0,12,13
 304 -118 304 -118 320 -114 c 1,14,-1
 309 -166 l 1,15,16
 290 -170 290 -170 275 -170 c 0,17,0
 226 -170 226 -170 195.5 -151.5 c 128,-1,1
EndSplineSet
EndChar
StartChar: uni0328.case
Encoding: 65554 -1 363
Width: 0
GlyphClass: 4
Flags: W
AnchorPoint: "Anchor-2" 346 10 mark 0
LayerCount: 2
Fore
SplineSet
196.5 -151.5 m 128,-1,1
 164 -133 164 -133 164 -99 c 0,2,3
 164 -62 164 -62 193 -36.5 c 128,-1,4
 222 -11 222 -11 268 9 c 1,5,-1
 344 0 l 1,6,7
 306 -9 306 -9 272.5 -32.5 c 128,-1,8
 239 -56 239 -56 239 -85 c 0,9,10
 239 -118 239 -118 288 -118 c 0,11,12
 305 -118 305 -118 319 -114 c 1,13,-1
 309 -166 l 1,14,15
 292 -170 292 -170 274 -170 c 0,16,0
 229 -170 229 -170 196.5 -151.5 c 128,-1,1
EndSplineSet
EndChar
StartChar: zero.zero
Encoding: 65539 -1 239
Width: 632
GlyphClass: 1
Flags: W
LayerCount: 2
Fore
SplineSet
120 56 m 128,-1,1
 63 125 63 125 63 241 c 0,2,3
 63 338 63 338 97 440 c 128,-1,4
 131 542 131 542 202.5 612 c 128,-1,5
 274 682 274 682 380 682 c 0,6,7
 493 682 493 682 550 613.5 c 128,-1,8
 607 545 607 545 607 429 c 0,9,10
 607 332 607 332 573 229.5 c 128,-1,11
 539 127 539 127 467.5 57 c 128,-1,12
 396 -13 396 -13 290 -13 c 0,13,0
 177 -13 177 -13 120 56 c 128,-1,1
423 118.5 m 128,-1,15
 475 181 475 181 499 268 c 128,-1,16
 523 355 523 355 523 431 c 0,17,18
 523 514 523 514 488 564 c 128,-1,19
 453 614 453 614 378 614 c 0,20,21
 300 614 300 614 248 551.5 c 128,-1,22
 196 489 196 489 171.5 401.5 c 128,-1,23
 147 314 147 314 147 237 c 0,24,25
 147 154 147 154 181.5 105 c 128,-1,26
 216 56 216 56 292 56 c 0,27,14
 371 56 371 56 423 118.5 c 128,-1,15
292.5 291.5 m 128,-1,29
 274 310 274 310 274 335 c 256,30,31
 274 360 274 360 292 378 c 128,-1,32
 310 396 310 396 336 396 c 256,33,34
 362 396 362 396 379.5 378.5 c 128,-1,35
 397 361 397 361 397 335 c 256,36,37
 397 309 397 309 379 291 c 128,-1,38
 361 273 361 273 336 273 c 256,39,28
 311 273 311 273 292.5 291.5 c 128,-1,29
EndSplineSet
EndChar
